<?xml version="1.0" encoding="UTF-8" standalone="no"?>
<!-- Generator: Adobe Illustrator 15.0.0, SVG Export Plug-In . SVG Version: 6.00 Build 0)  -->

<svg
   xmlns:dc="http://purl.org/dc/elements/1.1/"
   xmlns:cc="http://creativecommons.org/ns#"
   xmlns:rdf="http://www.w3.org/1999/02/22-rdf-syntax-ns#"
   xmlns:svg="http://www.w3.org/2000/svg"
   xmlns="http://www.w3.org/2000/svg"
   xmlns:sodipodi="http://sodipodi.sourceforge.net/DTD/sodipodi-0.dtd"
   xmlns:inkscape="http://www.inkscape.org/namespaces/inkscape"
   version="1.1"
   id="Layer_1"
   x="0px"
   y="0px"
   width="500"
   height="500"
   viewBox="0 0 499.99998 500"
   enable-background="new 0 0 595.275 841.891"
   xml:space="preserve"
   inkscape:version="0.48.4 r9939"
   sodipodi:docname="Logo_Garoa_Cor.svg"
   inkscape:export-filename="/home/oda/sketchbook/paudeled_0_3/img/Logo_Garoa_Cor.png"
   inkscape:export-xdpi="16.200001"
   inkscape:export-ydpi="16.200001"><metadata
     id="metadata880"><rdf:RDF><cc:Work
         rdf:about=""><dc:format>image/svg+xml</dc:format><dc:type
           rdf:resource="http://purl.org/dc/dcmitype/StillImage" /><dc:title></dc:title></cc:Work></rdf:RDF></metadata><defs
     id="defs878" /><sodipodi:namedview
     pagecolor="#ffffff"
     bordercolor="#666666"
     borderopacity="1"
     objecttolerance="10"
     gridtolerance="10"
     guidetolerance="10"
     inkscape:pageopacity="0"
     inkscape:pageshadow="2"
     inkscape:window-width="1366"
     inkscape:window-height="721"
     id="namedview876"
     showgrid="false"
     inkscape:zoom="0.91045592"
     inkscape:cx="274.5945"
     inkscape:cy="256.1089"
     inkscape:window-x="-3"
     inkscape:window-y="-3"
     inkscape:window-maximized="1"
     inkscape:current-layer="Layer_1" /><rect
     style="color:#000000;fill:#000000;fill-opacity:1;fill-rule:nonzero;stroke:none;stroke-width:1;marker:none;visibility:visible;display:inline;overflow:visible;enable-background:accumulate"
     id="rect4137"
     width="500"
     height="500"
     x="-9.9999997e-06"
     y="-8.6597396e-15" /><g
     id="Logo_Garoa_P_x26_B"
     display="none"
     style="display:none"
     transform="translate(0,-341.89101)"><path
       display="inline"
       d="m 471.96,628.1 c 0,14.09 -11.423,25.512 -25.513,25.512 h -317.71 c -14.09,0 -25.512,-11.422 -25.512,-25.512 V 160.835 c 0,-14.09 11.422,-25.512 25.512,-25.512 h 317.71 c 14.09,0 25.513,11.422 25.513,25.512 V 628.1 z"
       id="path4"
       inkscape:connector-curvature="0"
       style="fill:#1d1d1b;display:inline" /><g
       display="inline"
       id="g6"
       style="display:inline"><path
         d="m 128.313,166.771 c 1.987,0 3.602,-1.612 3.602,-3.603 0,-1.997 -1.612,-3.606 -3.602,-3.606 -1.99,0 -3.606,1.61 -3.606,3.606 0,1.991 1.616,3.603 3.606,3.603"
         id="path8"
         inkscape:connector-curvature="0"
         style="fill:#ffffff" /><path
         d="m 298.214,166.771 c 1.991,0 3.604,-1.612 3.604,-3.603 0,-1.997 -1.612,-3.606 -3.604,-3.606 -1.991,0 -3.608,1.61 -3.608,3.606 -0.002,1.991 1.617,3.603 3.608,3.603"
         id="path10"
         inkscape:connector-curvature="0"
         style="fill:#ffffff" /><path
         d="m 319.453,166.771 c 1.989,0 3.604,-1.612 3.604,-3.603 0,-1.997 -1.614,-3.606 -3.604,-3.606 -1.998,0 -3.607,1.61 -3.607,3.606 -10e-4,1.991 1.609,3.603 3.607,3.603"
         id="path12"
         inkscape:connector-curvature="0"
         style="fill:#ffffff" /><path
         d="m 340.687,166.771 c 1.99,0 3.606,-1.612 3.606,-3.603 0,-1.997 -1.616,-3.606 -3.606,-3.606 -1.99,0 -3.608,1.61 -3.608,3.606 -0.001,1.991 1.617,3.603 3.608,3.603"
         id="path14"
         inkscape:connector-curvature="0"
         style="fill:#ffffff" /><path
         d="m 361.925,166.771 c 1.99,0 3.609,-1.612 3.609,-3.603 0,-1.997 -1.619,-3.606 -3.609,-3.606 -1.99,0 -3.607,1.61 -3.607,3.606 -0.002,1.991 1.616,3.603 3.607,3.603"
         id="path16"
         inkscape:connector-curvature="0"
         style="fill:#ffffff" /><path
         d="m 383.161,166.771 c 1.989,0 3.612,-1.612 3.612,-3.603 0,-1.997 -1.623,-3.606 -3.612,-3.606 -1.99,0 -3.604,1.61 -3.604,3.606 -0.001,1.991 1.614,3.603 3.604,3.603"
         id="path18"
         inkscape:connector-curvature="0"
         style="fill:#ffffff" /><path
         d="m 404.397,166.771 c 1.991,0 3.605,-1.612 3.605,-3.603 0,-1.997 -1.614,-3.606 -3.605,-3.606 -1.989,0 -3.604,1.61 -3.604,3.606 10e-4,1.991 1.615,3.603 3.604,3.603"
         id="path20"
         inkscape:connector-curvature="0"
         style="fill:#ffffff" /><path
         d="m 425.636,166.771 c 1.996,0 3.609,-1.612 3.609,-3.603 0,-1.997 -1.613,-3.606 -3.609,-3.606 -1.989,0 -3.606,1.61 -3.606,3.606 -10e-4,1.991 1.616,3.603 3.606,3.603"
         id="path22"
         inkscape:connector-curvature="0"
         style="fill:#ffffff" /><path
         d="m 446.872,166.771 c 1.993,0 3.605,-1.612 3.605,-3.603 0,-1.997 -1.612,-3.606 -3.605,-3.606 -1.987,0 -3.604,1.61 -3.604,3.606 0,1.991 1.617,3.603 3.604,3.603"
         id="path24"
         inkscape:connector-curvature="0"
         style="fill:#ffffff" /><path
         d="m 149.553,166.771 c 1.987,0 3.604,-1.612 3.604,-3.603 0,-1.997 -1.616,-3.606 -3.604,-3.606 -1.991,0 -3.607,1.61 -3.607,3.606 -0.001,1.991 1.616,3.603 3.607,3.603"
         id="path26"
         inkscape:connector-curvature="0"
         style="fill:#ffffff" /><path
         d="m 170.786,166.771 c 1.992,0 3.604,-1.612 3.604,-3.603 0,-1.997 -1.61,-3.606 -3.604,-3.606 -1.99,0 -3.604,1.61 -3.604,3.606 -10e-4,1.991 1.614,3.603 3.604,3.603"
         id="path28"
         inkscape:connector-curvature="0"
         style="fill:#ffffff" /><path
         d="m 192.024,166.771 c 1.993,0 3.604,-1.612 3.604,-3.603 0,-1.997 -1.61,-3.606 -3.604,-3.606 -1.991,0 -3.606,1.61 -3.606,3.606 0,1.991 1.615,3.603 3.606,3.603"
         id="path30"
         inkscape:connector-curvature="0"
         style="fill:#ffffff" /><path
         d="m 213.259,166.771 c 1.995,0 3.609,-1.612 3.609,-3.603 0,-1.997 -1.614,-3.606 -3.609,-3.606 -1.988,0 -3.603,1.61 -3.603,3.606 0,1.991 1.614,3.603 3.603,3.603"
         id="path32"
         inkscape:connector-curvature="0"
         style="fill:#ffffff" /><path
         d="m 234.498,166.771 c 1.99,0 3.604,-1.612 3.604,-3.603 0,-1.997 -1.614,-3.606 -3.604,-3.606 -1.99,0 -3.604,1.61 -3.604,3.606 -0.001,1.991 1.614,3.603 3.604,3.603"
         id="path34"
         inkscape:connector-curvature="0"
         style="fill:#ffffff" /><path
         d="m 255.735,166.771 c 1.99,0 3.604,-1.612 3.604,-3.603 0,-1.997 -1.613,-3.606 -3.604,-3.606 -1.989,0 -3.604,1.61 -3.604,3.606 0.002,1.991 1.615,3.603 3.604,3.603"
         id="path36"
         inkscape:connector-curvature="0"
         style="fill:#ffffff" /><path
         d="m 276.972,166.771 c 1.988,0 3.603,-1.612 3.603,-3.603 0,-1.997 -1.613,-3.606 -3.603,-3.606 -1.99,0 -3.604,1.61 -3.604,3.606 0.001,1.991 1.613,3.603 3.604,3.603"
         id="path38"
         inkscape:connector-curvature="0"
         style="fill:#ffffff" /><path
         d="m 138.934,188.01 c 1.986,0 3.601,-1.614 3.601,-3.604 0,-1.993 -1.613,-3.604 -3.601,-3.604 -1.991,0 -3.607,1.611 -3.607,3.604 -0.001,1.99 1.615,3.604 3.607,3.604"
         id="path40"
         inkscape:connector-curvature="0"
         style="fill:#ffffff" /><path
         d="m 308.833,188.01 c 1.99,0 3.606,-1.614 3.606,-3.604 0,-1.993 -1.616,-3.604 -3.606,-3.604 -1.99,0 -3.609,1.611 -3.609,3.604 -10e-4,1.99 1.619,3.604 3.609,3.604"
         id="path42"
         inkscape:connector-curvature="0"
         style="fill:#ffffff" /><path
         d="m 330.068,188.01 c 1.99,0 3.606,-1.614 3.606,-3.604 0,-1.993 -1.616,-3.604 -3.606,-3.604 -1.994,0 -3.604,1.611 -3.604,3.604 0.002,1.99 1.61,3.604 3.604,3.604"
         id="path44"
         inkscape:connector-curvature="0"
         style="fill:#ffffff" /><path
         d="m 351.305,188.01 c 1.99,0 3.605,-1.614 3.605,-3.604 0,-1.993 -1.615,-3.604 -3.605,-3.604 -1.99,0 -3.604,1.611 -3.604,3.604 10e-4,1.99 1.613,3.604 3.604,3.604"
         id="path46"
         inkscape:connector-curvature="0"
         style="fill:#ffffff" /><path
         d="m 372.542,188.01 c 1.992,0 3.611,-1.614 3.611,-3.604 0,-1.993 -1.619,-3.604 -3.611,-3.604 -1.99,0 -3.605,1.611 -3.605,3.604 -0.001,1.99 1.615,3.604 3.605,3.604"
         id="path48"
         inkscape:connector-curvature="0"
         style="fill:#ffffff" /><path
         d="m 393.777,188.01 c 1.992,0 3.611,-1.614 3.611,-3.604 0,-1.993 -1.619,-3.604 -3.611,-3.604 -1.99,0 -3.603,1.611 -3.603,3.604 0.002,1.99 1.613,3.604 3.603,3.604"
         id="path50"
         inkscape:connector-curvature="0"
         style="fill:#ffffff" /><path
         d="m 415.019,188.01 c 1.99,0 3.603,-1.614 3.603,-3.604 0,-1.993 -1.611,-3.604 -3.603,-3.604 -1.992,0 -3.61,1.611 -3.61,3.604 -10e-4,1.99 1.619,3.604 3.61,3.604"
         id="path52"
         inkscape:connector-curvature="0"
         style="fill:#ffffff" /><path
         d="m 436.253,188.01 c 2,0 3.613,-1.614 3.613,-3.604 0,-1.993 -1.613,-3.604 -3.613,-3.604 -1.986,0 -3.604,1.611 -3.604,3.604 -0.002,1.99 1.617,3.604 3.604,3.604"
         id="path54"
         inkscape:connector-curvature="0"
         style="fill:#ffffff" /><path
         d="m 160.17,188.01 c 1.991,0 3.608,-1.614 3.608,-3.604 0,-1.993 -1.617,-3.604 -3.608,-3.604 -1.994,0 -3.606,1.611 -3.606,3.604 -0.002,1.99 1.612,3.604 3.606,3.604"
         id="path56"
         inkscape:connector-curvature="0"
         style="fill:#ffffff" /><path
         d="m 181.405,188.01 c 1.993,0 3.604,-1.614 3.604,-3.604 0,-1.993 -1.609,-3.604 -3.604,-3.604 -1.991,0 -3.605,1.611 -3.605,3.604 0,1.99 1.614,3.604 3.605,3.604"
         id="path58"
         inkscape:connector-curvature="0"
         style="fill:#ffffff" /><path
         d="m 202.642,188.01 c 1.993,0 3.605,-1.614 3.605,-3.604 0,-1.993 -1.612,-3.604 -3.605,-3.604 -1.992,0 -3.604,1.611 -3.604,3.604 0,1.99 1.611,3.604 3.604,3.604"
         id="path60"
         inkscape:connector-curvature="0"
         style="fill:#ffffff" /><path
         d="m 223.879,188.01 c 1.993,0 3.605,-1.614 3.605,-3.604 0,-1.993 -1.612,-3.604 -3.605,-3.604 -1.99,0 -3.604,1.611 -3.604,3.604 -0.002,1.99 1.613,3.604 3.604,3.604"
         id="path62"
         inkscape:connector-curvature="0"
         style="fill:#ffffff" /><path
         d="m 245.117,188.01 c 1.991,0 3.604,-1.614 3.604,-3.604 0,-1.993 -1.613,-3.604 -3.604,-3.604 -1.99,0 -3.604,1.611 -3.604,3.604 -0.001,1.99 1.614,3.604 3.604,3.604"
         id="path64"
         inkscape:connector-curvature="0"
         style="fill:#ffffff" /><path
         d="m 266.353,188.01 c 1.991,0 3.606,-1.614 3.606,-3.604 0,-1.993 -1.615,-3.604 -3.606,-3.604 -1.991,0 -3.604,1.611 -3.604,3.604 10e-4,1.99 1.612,3.604 3.604,3.604"
         id="path66"
         inkscape:connector-curvature="0"
         style="fill:#ffffff" /><path
         d="m 287.591,188.01 c 1.991,0 3.604,-1.614 3.604,-3.604 0,-1.993 -1.612,-3.604 -3.604,-3.604 -1.989,0 -3.605,1.611 -3.605,3.604 -0.002,1.99 1.615,3.604 3.605,3.604"
         id="path68"
         inkscape:connector-curvature="0"
         style="fill:#ffffff" /><path
         d="m 128.313,209.245 c 1.987,0 3.602,-1.608 3.602,-3.604 0,-1.992 -1.612,-3.606 -3.602,-3.606 -1.99,0 -3.606,1.614 -3.606,3.606 0,1.995 1.616,3.604 3.606,3.604"
         id="path70"
         inkscape:connector-curvature="0"
         style="fill:#ffffff" /><path
         d="m 298.214,209.245 c 1.991,0 3.604,-1.608 3.604,-3.604 0,-1.992 -1.612,-3.606 -3.604,-3.606 -1.991,0 -3.608,1.614 -3.608,3.606 -0.002,1.995 1.617,3.604 3.608,3.604"
         id="path72"
         inkscape:connector-curvature="0"
         style="fill:#ffffff" /><path
         d="m 319.453,209.245 c 1.989,0 3.604,-1.608 3.604,-3.604 0,-1.992 -1.614,-3.606 -3.604,-3.606 -1.998,0 -3.607,1.614 -3.607,3.606 -10e-4,1.995 1.609,3.604 3.607,3.604"
         id="path74"
         inkscape:connector-curvature="0"
         style="fill:#ffffff" /><path
         d="m 340.687,209.245 c 1.99,0 3.606,-1.608 3.606,-3.604 0,-1.992 -1.616,-3.606 -3.606,-3.606 -1.99,0 -3.608,1.614 -3.608,3.606 -0.001,1.995 1.617,3.604 3.608,3.604"
         id="path76"
         inkscape:connector-curvature="0"
         style="fill:#ffffff" /><path
         d="m 361.925,209.245 c 1.99,0 3.609,-1.608 3.609,-3.604 0,-1.992 -1.619,-3.606 -3.609,-3.606 -1.99,0 -3.607,1.614 -3.607,3.606 -0.002,1.995 1.616,3.604 3.607,3.604"
         id="path78"
         inkscape:connector-curvature="0"
         style="fill:#ffffff" /><path
         d="m 383.161,209.245 c 1.989,0 3.612,-1.608 3.612,-3.604 0,-1.992 -1.623,-3.606 -3.612,-3.606 -1.99,0 -3.604,1.614 -3.604,3.606 -0.001,1.995 1.614,3.604 3.604,3.604"
         id="path80"
         inkscape:connector-curvature="0"
         style="fill:#ffffff" /><path
         d="m 404.397,209.245 c 1.991,0 3.605,-1.608 3.605,-3.604 0,-1.992 -1.614,-3.606 -3.605,-3.606 -1.989,0 -3.604,1.614 -3.604,3.606 10e-4,1.995 1.615,3.604 3.604,3.604"
         id="path82"
         inkscape:connector-curvature="0"
         style="fill:#ffffff" /><path
         d="m 425.636,209.245 c 1.996,0 3.609,-1.608 3.609,-3.604 0,-1.992 -1.613,-3.606 -3.609,-3.606 -1.989,0 -3.606,1.614 -3.606,3.606 -10e-4,1.995 1.616,3.604 3.606,3.604"
         id="path84"
         inkscape:connector-curvature="0"
         style="fill:#ffffff" /><path
         d="m 446.872,209.245 c 1.993,0 3.605,-1.608 3.605,-3.604 0,-1.992 -1.612,-3.606 -3.605,-3.606 -1.987,0 -3.604,1.614 -3.604,3.606 0,1.995 1.617,3.604 3.604,3.604"
         id="path86"
         inkscape:connector-curvature="0"
         style="fill:#ffffff" /><path
         d="m 149.553,209.245 c 1.987,0 3.604,-1.608 3.604,-3.604 0,-1.992 -1.616,-3.606 -3.604,-3.606 -1.991,0 -3.607,1.614 -3.607,3.606 -0.001,1.995 1.616,3.604 3.607,3.604"
         id="path88"
         inkscape:connector-curvature="0"
         style="fill:#ffffff" /><path
         d="m 170.786,209.245 c 1.992,0 3.604,-1.608 3.604,-3.604 0,-1.992 -1.61,-3.606 -3.604,-3.606 -1.99,0 -3.604,1.614 -3.604,3.606 -10e-4,1.995 1.614,3.604 3.604,3.604"
         id="path90"
         inkscape:connector-curvature="0"
         style="fill:#ffffff" /><path
         d="m 192.024,209.245 c 1.993,0 3.604,-1.608 3.604,-3.604 0,-1.992 -1.61,-3.606 -3.604,-3.606 -1.991,0 -3.606,1.614 -3.606,3.606 0,1.995 1.615,3.604 3.606,3.604"
         id="path92"
         inkscape:connector-curvature="0"
         style="fill:#ffffff" /><path
         d="m 213.259,209.245 c 1.995,0 3.609,-1.608 3.609,-3.604 0,-1.992 -1.614,-3.606 -3.609,-3.606 -1.988,0 -3.603,1.614 -3.603,3.606 0,1.995 1.614,3.604 3.603,3.604"
         id="path94"
         inkscape:connector-curvature="0"
         style="fill:#ffffff" /><path
         d="m 234.498,209.245 c 1.99,0 3.604,-1.608 3.604,-3.604 0,-1.992 -1.614,-3.606 -3.604,-3.606 -1.99,0 -3.604,1.614 -3.604,3.606 -0.001,1.995 1.614,3.604 3.604,3.604"
         id="path96"
         inkscape:connector-curvature="0"
         style="fill:#ffffff" /><path
         d="m 255.735,209.245 c 1.99,0 3.604,-1.608 3.604,-3.604 0,-1.992 -1.613,-3.606 -3.604,-3.606 -1.989,0 -3.604,1.614 -3.604,3.606 0.002,1.995 1.615,3.604 3.604,3.604"
         id="path98"
         inkscape:connector-curvature="0"
         style="fill:#ffffff" /><path
         d="m 276.972,209.245 c 1.988,0 3.603,-1.608 3.603,-3.604 0,-1.992 -1.613,-3.606 -3.603,-3.606 -1.99,0 -3.604,1.614 -3.604,3.606 0.001,1.995 1.613,3.604 3.604,3.604"
         id="path100"
         inkscape:connector-curvature="0"
         style="fill:#ffffff" /><path
         d="m 138.934,230.485 c 1.986,0 3.601,-1.613 3.601,-3.604 0,-1.99 -1.613,-3.605 -3.601,-3.605 -1.991,0 -3.607,1.615 -3.607,3.605 0,1.991 1.615,3.604 3.607,3.604"
         id="path102"
         inkscape:connector-curvature="0"
         style="fill:#ffffff" /><path
         d="m 308.833,230.485 c 1.99,0 3.606,-1.613 3.606,-3.604 0,-1.99 -1.616,-3.605 -3.606,-3.605 -1.99,0 -3.609,1.615 -3.609,3.605 -10e-4,1.991 1.619,3.604 3.609,3.604"
         id="path104"
         inkscape:connector-curvature="0"
         style="fill:#ffffff" /><path
         d="m 330.068,230.485 c 1.99,0 3.606,-1.613 3.606,-3.604 0,-1.99 -1.616,-3.605 -3.606,-3.605 -1.994,0 -3.604,1.615 -3.604,3.605 10e-4,1.991 1.61,3.604 3.604,3.604"
         id="path106"
         inkscape:connector-curvature="0"
         style="fill:#ffffff" /><path
         d="m 351.305,230.485 c 1.99,0 3.605,-1.613 3.605,-3.604 0,-1.99 -1.615,-3.605 -3.605,-3.605 -1.99,0 -3.604,1.615 -3.604,3.605 10e-4,1.991 1.613,3.604 3.604,3.604"
         id="path108"
         inkscape:connector-curvature="0"
         style="fill:#ffffff" /><path
         d="m 372.542,230.485 c 1.992,0 3.611,-1.613 3.611,-3.604 0,-1.99 -1.619,-3.605 -3.611,-3.605 -1.99,0 -3.605,1.615 -3.605,3.605 -0.001,1.991 1.615,3.604 3.605,3.604"
         id="path110"
         inkscape:connector-curvature="0"
         style="fill:#ffffff" /><path
         d="m 393.777,230.485 c 1.992,0 3.611,-1.613 3.611,-3.604 0,-1.99 -1.619,-3.605 -3.611,-3.605 -1.99,0 -3.603,1.615 -3.603,3.605 0.001,1.991 1.613,3.604 3.603,3.604"
         id="path112"
         inkscape:connector-curvature="0"
         style="fill:#ffffff" /><path
         d="m 415.019,230.485 c 1.99,0 3.603,-1.613 3.603,-3.604 0,-1.99 -1.611,-3.605 -3.603,-3.605 -1.992,0 -3.61,1.615 -3.61,3.605 0,1.991 1.619,3.604 3.61,3.604"
         id="path114"
         inkscape:connector-curvature="0"
         style="fill:#ffffff" /><path
         d="m 436.253,230.485 c 2,0 3.613,-1.613 3.613,-3.604 0,-1.99 -1.613,-3.605 -3.613,-3.605 -1.986,0 -3.604,1.615 -3.604,3.605 -10e-4,1.991 1.617,3.604 3.604,3.604"
         id="path116"
         inkscape:connector-curvature="0"
         style="fill:#ffffff" /><path
         d="m 160.17,230.485 c 1.991,0 3.608,-1.613 3.608,-3.604 0,-1.99 -1.617,-3.605 -3.608,-3.605 -1.994,0 -3.606,1.615 -3.606,3.605 -0.001,1.991 1.612,3.604 3.606,3.604"
         id="path118"
         inkscape:connector-curvature="0"
         style="fill:#ffffff" /><path
         d="m 181.405,230.485 c 1.993,0 3.604,-1.613 3.604,-3.604 0,-1.99 -1.609,-3.605 -3.604,-3.605 -1.991,0 -3.605,1.615 -3.605,3.605 0,1.991 1.614,3.604 3.605,3.604"
         id="path120"
         inkscape:connector-curvature="0"
         style="fill:#ffffff" /><path
         d="m 202.642,230.485 c 1.993,0 3.605,-1.613 3.605,-3.604 0,-1.99 -1.612,-3.605 -3.605,-3.605 -1.992,0 -3.604,1.615 -3.604,3.605 0,1.991 1.611,3.604 3.604,3.604"
         id="path122"
         inkscape:connector-curvature="0"
         style="fill:#ffffff" /><path
         d="m 223.879,230.485 c 1.993,0 3.605,-1.613 3.605,-3.604 0,-1.99 -1.612,-3.605 -3.605,-3.605 -1.99,0 -3.604,1.615 -3.604,3.605 -0.001,1.991 1.613,3.604 3.604,3.604"
         id="path124"
         inkscape:connector-curvature="0"
         style="fill:#ffffff" /><path
         d="m 245.117,230.485 c 1.991,0 3.604,-1.613 3.604,-3.604 0,-1.99 -1.613,-3.605 -3.604,-3.605 -1.99,0 -3.604,1.615 -3.604,3.605 -0.001,1.991 1.614,3.604 3.604,3.604"
         id="path126"
         inkscape:connector-curvature="0"
         style="fill:#ffffff" /><path
         d="m 266.353,230.485 c 1.991,0 3.606,-1.613 3.606,-3.604 0,-1.99 -1.615,-3.605 -3.606,-3.605 -1.991,0 -3.604,1.615 -3.604,3.605 10e-4,1.991 1.612,3.604 3.604,3.604"
         id="path128"
         inkscape:connector-curvature="0"
         style="fill:#ffffff" /><path
         d="m 287.591,230.485 c 1.991,0 3.604,-1.613 3.604,-3.604 0,-1.99 -1.612,-3.605 -3.604,-3.605 -1.989,0 -3.605,1.615 -3.605,3.605 -10e-4,1.991 1.615,3.604 3.605,3.604"
         id="path130"
         inkscape:connector-curvature="0"
         style="fill:#ffffff" /><path
         d="m 128.313,251.724 c 1.987,0 3.602,-1.615 3.602,-3.604 0,-1.992 -1.612,-3.607 -3.602,-3.607 -1.99,0 -3.606,1.616 -3.606,3.607 0,1.988 1.616,3.604 3.606,3.604"
         id="path132"
         inkscape:connector-curvature="0"
         style="fill:#ffffff" /><path
         d="m 298.214,251.724 c 1.991,0 3.604,-1.615 3.604,-3.604 0,-1.992 -1.612,-3.607 -3.604,-3.607 -1.991,0 -3.608,1.616 -3.608,3.607 -0.002,1.988 1.617,3.604 3.608,3.604"
         id="path134"
         inkscape:connector-curvature="0"
         style="fill:#ffffff" /><path
         d="m 319.453,251.724 c 1.989,0 3.604,-1.615 3.604,-3.604 0,-1.992 -1.614,-3.607 -3.604,-3.607 -1.998,0 -3.607,1.616 -3.607,3.607 -10e-4,1.988 1.609,3.604 3.607,3.604"
         id="path136"
         inkscape:connector-curvature="0"
         style="fill:#ffffff" /><path
         d="m 340.687,251.724 c 1.99,0 3.606,-1.615 3.606,-3.604 0,-1.992 -1.616,-3.607 -3.606,-3.607 -1.99,0 -3.608,1.616 -3.608,3.607 -0.001,1.988 1.617,3.604 3.608,3.604"
         id="path138"
         inkscape:connector-curvature="0"
         style="fill:#ffffff" /><path
         d="m 361.925,251.724 c 1.99,0 3.609,-1.615 3.609,-3.604 0,-1.992 -1.619,-3.607 -3.609,-3.607 -1.99,0 -3.607,1.616 -3.607,3.607 -0.002,1.988 1.616,3.604 3.607,3.604"
         id="path140"
         inkscape:connector-curvature="0"
         style="fill:#ffffff" /><path
         d="m 383.161,251.724 c 1.989,0 3.612,-1.615 3.612,-3.604 0,-1.992 -1.623,-3.607 -3.612,-3.607 -1.99,0 -3.604,1.616 -3.604,3.607 -0.001,1.988 1.614,3.604 3.604,3.604"
         id="path142"
         inkscape:connector-curvature="0"
         style="fill:#ffffff" /><path
         d="m 404.397,251.724 c 1.991,0 3.605,-1.615 3.605,-3.604 0,-1.992 -1.614,-3.607 -3.605,-3.607 -1.989,0 -3.604,1.616 -3.604,3.607 10e-4,1.988 1.615,3.604 3.604,3.604"
         id="path144"
         inkscape:connector-curvature="0"
         style="fill:#ffffff" /><path
         d="m 425.636,251.724 c 1.996,0 3.609,-1.615 3.609,-3.604 0,-1.992 -1.613,-3.607 -3.609,-3.607 -1.989,0 -3.606,1.616 -3.606,3.607 -10e-4,1.988 1.616,3.604 3.606,3.604"
         id="path146"
         inkscape:connector-curvature="0"
         style="fill:#ffffff" /><path
         d="m 446.872,251.724 c 1.993,0 3.605,-1.615 3.605,-3.604 0,-1.992 -1.612,-3.607 -3.605,-3.607 -1.987,0 -3.604,1.616 -3.604,3.607 0,1.988 1.617,3.604 3.604,3.604"
         id="path148"
         inkscape:connector-curvature="0"
         style="fill:#ffffff" /><path
         d="m 149.553,251.724 c 1.987,0 3.604,-1.615 3.604,-3.604 0,-1.992 -1.616,-3.607 -3.604,-3.607 -1.991,0 -3.607,1.616 -3.607,3.607 -0.001,1.988 1.616,3.604 3.607,3.604"
         id="path150"
         inkscape:connector-curvature="0"
         style="fill:#ffffff" /><path
         d="m 170.786,251.724 c 1.992,0 3.604,-1.615 3.604,-3.604 0,-1.992 -1.61,-3.607 -3.604,-3.607 -1.99,0 -3.604,1.616 -3.604,3.607 -10e-4,1.988 1.614,3.604 3.604,3.604"
         id="path152"
         inkscape:connector-curvature="0"
         style="fill:#ffffff" /><path
         d="m 192.024,251.724 c 1.993,0 3.604,-1.615 3.604,-3.604 0,-1.992 -1.61,-3.607 -3.604,-3.607 -1.991,0 -3.606,1.616 -3.606,3.607 0,1.988 1.615,3.604 3.606,3.604"
         id="path154"
         inkscape:connector-curvature="0"
         style="fill:#ffffff" /><path
         d="m 213.259,251.724 c 1.995,0 3.609,-1.615 3.609,-3.604 0,-1.992 -1.614,-3.607 -3.609,-3.607 -1.988,0 -3.603,1.616 -3.603,3.607 0,1.988 1.614,3.604 3.603,3.604"
         id="path156"
         inkscape:connector-curvature="0"
         style="fill:#ffffff" /><path
         d="m 234.498,251.724 c 1.99,0 3.604,-1.615 3.604,-3.604 0,-1.992 -1.614,-3.607 -3.604,-3.607 -1.99,0 -3.604,1.616 -3.604,3.607 -0.001,1.988 1.614,3.604 3.604,3.604"
         id="path158"
         inkscape:connector-curvature="0"
         style="fill:#ffffff" /><path
         d="m 255.735,251.724 c 1.99,0 3.604,-1.615 3.604,-3.604 0,-1.992 -1.613,-3.607 -3.604,-3.607 -1.989,0 -3.604,1.616 -3.604,3.607 0.002,1.988 1.615,3.604 3.604,3.604"
         id="path160"
         inkscape:connector-curvature="0"
         style="fill:#ffffff" /><path
         d="m 276.972,251.724 c 1.988,0 3.603,-1.615 3.603,-3.604 0,-1.992 -1.613,-3.607 -3.603,-3.607 -1.99,0 -3.604,1.616 -3.604,3.607 0.001,1.988 1.613,3.604 3.604,3.604"
         id="path162"
         inkscape:connector-curvature="0"
         style="fill:#ffffff" /><path
         d="m 138.934,272.96 c 1.986,0 3.601,-1.614 3.601,-3.604 0,-1.992 -1.613,-3.607 -3.601,-3.607 -1.991,0 -3.607,1.615 -3.607,3.607 -0.001,1.99 1.615,3.604 3.607,3.604"
         id="path164"
         inkscape:connector-curvature="0"
         style="fill:#ffffff" /><path
         d="m 308.833,272.96 c 1.99,0 3.606,-1.614 3.606,-3.604 0,-1.992 -1.616,-3.607 -3.606,-3.607 -1.99,0 -3.609,1.615 -3.609,3.607 -10e-4,1.99 1.619,3.604 3.609,3.604"
         id="path166"
         inkscape:connector-curvature="0"
         style="fill:#ffffff" /><path
         d="m 330.068,272.96 c 1.99,0 3.606,-1.614 3.606,-3.604 0,-1.992 -1.616,-3.607 -3.606,-3.607 -1.994,0 -3.604,1.615 -3.604,3.607 0.002,1.99 1.61,3.604 3.604,3.604"
         id="path168"
         inkscape:connector-curvature="0"
         style="fill:#ffffff" /><path
         d="m 351.305,272.96 c 1.99,0 3.605,-1.614 3.605,-3.604 0,-1.992 -1.615,-3.607 -3.605,-3.607 -1.99,0 -3.604,1.615 -3.604,3.607 10e-4,1.99 1.613,3.604 3.604,3.604"
         id="path170"
         inkscape:connector-curvature="0"
         style="fill:#ffffff" /><path
         d="m 372.542,272.96 c 1.992,0 3.611,-1.614 3.611,-3.604 0,-1.992 -1.619,-3.607 -3.611,-3.607 -1.99,0 -3.605,1.615 -3.605,3.607 -0.001,1.99 1.615,3.604 3.605,3.604"
         id="path172"
         inkscape:connector-curvature="0"
         style="fill:#ffffff" /><path
         d="m 393.777,272.96 c 1.992,0 3.611,-1.614 3.611,-3.604 0,-1.992 -1.619,-3.607 -3.611,-3.607 -1.99,0 -3.603,1.615 -3.603,3.607 0.002,1.99 1.613,3.604 3.603,3.604"
         id="path174"
         inkscape:connector-curvature="0"
         style="fill:#ffffff" /><path
         d="m 415.019,272.96 c 1.99,0 3.603,-1.614 3.603,-3.604 0,-1.992 -1.611,-3.607 -3.603,-3.607 -1.992,0 -3.61,1.615 -3.61,3.607 -10e-4,1.99 1.619,3.604 3.61,3.604"
         id="path176"
         inkscape:connector-curvature="0"
         style="fill:#ffffff" /><path
         d="m 436.253,272.96 c 2,0 3.613,-1.614 3.613,-3.604 0,-1.992 -1.613,-3.607 -3.613,-3.607 -1.986,0 -3.604,1.615 -3.604,3.607 -0.002,1.99 1.617,3.604 3.604,3.604"
         id="path178"
         inkscape:connector-curvature="0"
         style="fill:#ffffff" /><path
         d="m 160.17,272.96 c 1.991,0 3.608,-1.614 3.608,-3.604 0,-1.992 -1.617,-3.607 -3.608,-3.607 -1.994,0 -3.606,1.615 -3.606,3.607 -0.002,1.99 1.612,3.604 3.606,3.604"
         id="path180"
         inkscape:connector-curvature="0"
         style="fill:#ffffff" /><path
         d="m 181.405,272.96 c 1.993,0 3.604,-1.614 3.604,-3.604 0,-1.992 -1.609,-3.607 -3.604,-3.607 -1.991,0 -3.605,1.615 -3.605,3.607 0,1.99 1.614,3.604 3.605,3.604"
         id="path182"
         inkscape:connector-curvature="0"
         style="fill:#ffffff" /><path
         d="m 202.642,272.96 c 1.993,0 3.605,-1.614 3.605,-3.604 0,-1.992 -1.612,-3.607 -3.605,-3.607 -1.992,0 -3.604,1.615 -3.604,3.607 0,1.99 1.611,3.604 3.604,3.604"
         id="path184"
         inkscape:connector-curvature="0"
         style="fill:#ffffff" /><path
         d="m 223.879,272.96 c 1.993,0 3.605,-1.614 3.605,-3.604 0,-1.992 -1.612,-3.607 -3.605,-3.607 -1.99,0 -3.604,1.615 -3.604,3.607 -0.002,1.99 1.613,3.604 3.604,3.604"
         id="path186"
         inkscape:connector-curvature="0"
         style="fill:#ffffff" /><path
         d="m 245.117,272.96 c 1.991,0 3.604,-1.614 3.604,-3.604 0,-1.992 -1.613,-3.607 -3.604,-3.607 -1.99,0 -3.604,1.615 -3.604,3.607 -0.001,1.99 1.614,3.604 3.604,3.604"
         id="path188"
         inkscape:connector-curvature="0"
         style="fill:#ffffff" /><path
         d="m 266.353,272.96 c 1.991,0 3.606,-1.614 3.606,-3.604 0,-1.992 -1.615,-3.607 -3.606,-3.607 -1.991,0 -3.604,1.615 -3.604,3.607 10e-4,1.99 1.612,3.604 3.604,3.604"
         id="path190"
         inkscape:connector-curvature="0"
         style="fill:#ffffff" /><path
         d="m 128.313,294.209 c 1.987,0 3.602,-1.612 3.602,-3.604 0,-1.998 -1.612,-3.615 -3.602,-3.615 -1.99,0 -3.606,1.617 -3.606,3.615 0,1.991 1.616,3.604 3.606,3.604"
         id="path192"
         inkscape:connector-curvature="0"
         style="fill:#ffffff" /><path
         d="m 319.453,294.209 c 1.989,0 3.604,-1.612 3.604,-3.604 0,-1.998 -1.614,-3.615 -3.604,-3.615 -1.998,0 -3.607,1.617 -3.607,3.615 -10e-4,1.991 1.609,3.604 3.607,3.604"
         id="path194"
         inkscape:connector-curvature="0"
         style="fill:#ffffff" /><path
         d="m 340.687,294.209 c 1.99,0 3.606,-1.612 3.606,-3.604 0,-1.998 -1.616,-3.615 -3.606,-3.615 -1.99,0 -3.608,1.617 -3.608,3.615 -0.001,1.991 1.617,3.604 3.608,3.604"
         id="path196"
         inkscape:connector-curvature="0"
         style="fill:#ffffff" /><path
         d="m 361.925,294.209 c 1.99,0 3.609,-1.612 3.609,-3.604 0,-1.998 -1.619,-3.615 -3.609,-3.615 -1.99,0 -3.607,1.617 -3.607,3.615 -0.002,1.991 1.616,3.604 3.607,3.604"
         id="path198"
         inkscape:connector-curvature="0"
         style="fill:#ffffff" /><path
         d="m 383.161,294.209 c 1.989,0 3.612,-1.612 3.612,-3.604 0,-1.998 -1.623,-3.615 -3.612,-3.615 -1.99,0 -3.604,1.617 -3.604,3.615 -0.001,1.991 1.614,3.604 3.604,3.604"
         id="path200"
         inkscape:connector-curvature="0"
         style="fill:#ffffff" /><path
         d="m 404.397,294.209 c 1.991,0 3.605,-1.612 3.605,-3.604 0,-1.998 -1.614,-3.615 -3.605,-3.615 -1.989,0 -3.604,1.617 -3.604,3.615 10e-4,1.991 1.615,3.604 3.604,3.604"
         id="path202"
         inkscape:connector-curvature="0"
         style="fill:#ffffff" /><path
         d="m 425.636,294.209 c 1.996,0 3.609,-1.612 3.609,-3.604 0,-1.998 -1.613,-3.615 -3.609,-3.615 -1.989,0 -3.606,1.617 -3.606,3.615 -10e-4,1.991 1.616,3.604 3.606,3.604"
         id="path204"
         inkscape:connector-curvature="0"
         style="fill:#ffffff" /><path
         d="m 446.872,294.209 c 1.993,0 3.605,-1.612 3.605,-3.604 0,-1.998 -1.612,-3.615 -3.605,-3.615 -1.987,0 -3.604,1.617 -3.604,3.615 0,1.991 1.617,3.604 3.604,3.604"
         id="path206"
         inkscape:connector-curvature="0"
         style="fill:#ffffff" /><path
         d="m 149.553,294.209 c 1.987,0 3.604,-1.612 3.604,-3.604 0,-1.998 -1.616,-3.615 -3.604,-3.615 -1.991,0 -3.607,1.617 -3.607,3.615 -0.001,1.991 1.616,3.604 3.607,3.604"
         id="path208"
         inkscape:connector-curvature="0"
         style="fill:#ffffff" /><path
         d="m 170.786,294.209 c 1.992,0 3.604,-1.612 3.604,-3.604 0,-1.998 -1.61,-3.615 -3.604,-3.615 -1.99,0 -3.604,1.617 -3.604,3.615 -10e-4,1.991 1.614,3.604 3.604,3.604"
         id="path210"
         inkscape:connector-curvature="0"
         style="fill:#ffffff" /><path
         d="m 192.024,294.209 c 1.993,0 3.604,-1.612 3.604,-3.604 0,-1.998 -1.61,-3.615 -3.604,-3.615 -1.991,0 -3.606,1.617 -3.606,3.615 0,1.991 1.615,3.604 3.606,3.604"
         id="path212"
         inkscape:connector-curvature="0"
         style="fill:#ffffff" /><path
         d="m 213.259,294.209 c 1.995,0 3.609,-1.612 3.609,-3.604 0,-1.998 -1.614,-3.615 -3.609,-3.615 -1.988,0 -3.603,1.617 -3.603,3.615 0,1.991 1.614,3.604 3.603,3.604"
         id="path214"
         inkscape:connector-curvature="0"
         style="fill:#ffffff" /><path
         d="m 234.498,294.209 c 1.99,0 3.604,-1.612 3.604,-3.604 0,-1.998 -1.614,-3.615 -3.604,-3.615 -1.99,0 -3.604,1.617 -3.604,3.615 -0.001,1.991 1.614,3.604 3.604,3.604"
         id="path216"
         inkscape:connector-curvature="0"
         style="fill:#ffffff" /><path
         d="m 255.735,294.209 c 1.99,0 3.604,-1.612 3.604,-3.604 0,-1.998 -1.613,-3.615 -3.604,-3.615 -1.989,0 -3.604,1.617 -3.604,3.615 0.002,1.991 1.615,3.604 3.604,3.604"
         id="path218"
         inkscape:connector-curvature="0"
         style="fill:#ffffff" /><path
         d="m 138.934,315.446 c 1.986,0 3.601,-1.615 3.601,-3.605 0,-1.991 -1.613,-3.605 -3.601,-3.605 -1.991,0 -3.607,1.614 -3.607,3.605 -0.001,1.99 1.615,3.605 3.607,3.605"
         id="path220"
         inkscape:connector-curvature="0"
         style="fill:#ffffff" /><path
         d="m 372.542,315.446 c 1.992,0 3.611,-1.615 3.611,-3.605 0,-1.991 -1.619,-3.605 -3.611,-3.605 -1.99,0 -3.605,1.614 -3.605,3.605 -0.001,1.99 1.615,3.605 3.605,3.605"
         id="path222"
         inkscape:connector-curvature="0"
         style="fill:#ffffff" /><path
         d="m 393.777,315.446 c 1.992,0 3.611,-1.615 3.611,-3.605 0,-1.991 -1.619,-3.605 -3.611,-3.605 -1.99,0 -3.603,1.614 -3.603,3.605 0.002,1.99 1.613,3.605 3.603,3.605"
         id="path224"
         inkscape:connector-curvature="0"
         style="fill:#ffffff" /><path
         d="m 415.019,315.446 c 1.99,0 3.603,-1.615 3.603,-3.605 0,-1.991 -1.611,-3.605 -3.603,-3.605 -1.992,0 -3.61,1.614 -3.61,3.605 -10e-4,1.99 1.619,3.605 3.61,3.605"
         id="path226"
         inkscape:connector-curvature="0"
         style="fill:#ffffff" /><path
         d="m 436.253,315.446 c 2,0 3.613,-1.615 3.613,-3.605 0,-1.991 -1.613,-3.605 -3.613,-3.605 -1.986,0 -3.604,1.614 -3.604,3.605 -0.002,1.99 1.617,3.605 3.604,3.605"
         id="path228"
         inkscape:connector-curvature="0"
         style="fill:#ffffff" /><path
         d="m 160.17,315.446 c 1.991,0 3.608,-1.615 3.608,-3.605 0,-1.991 -1.617,-3.605 -3.608,-3.605 -1.994,0 -3.606,1.614 -3.606,3.605 -0.002,1.99 1.612,3.605 3.606,3.605"
         id="path230"
         inkscape:connector-curvature="0"
         style="fill:#ffffff" /><path
         d="m 181.405,315.446 c 1.993,0 3.604,-1.615 3.604,-3.605 0,-1.991 -1.609,-3.605 -3.604,-3.605 -1.991,0 -3.605,1.614 -3.605,3.605 0,1.99 1.614,3.605 3.605,3.605"
         id="path232"
         inkscape:connector-curvature="0"
         style="fill:#ffffff" /><path
         d="m 202.642,315.446 c 1.993,0 3.605,-1.615 3.605,-3.605 0,-1.991 -1.612,-3.605 -3.605,-3.605 -1.992,0 -3.604,1.614 -3.604,3.605 0,1.99 1.611,3.605 3.604,3.605"
         id="path234"
         inkscape:connector-curvature="0"
         style="fill:#ffffff" /><path
         d="m 128.313,336.686 c 1.987,0 3.602,-1.613 3.602,-3.604 0,-1.995 -1.612,-3.61 -3.602,-3.61 -1.99,0 -3.606,1.616 -3.606,3.61 0,1.991 1.616,3.604 3.606,3.604"
         id="path236"
         inkscape:connector-curvature="0"
         style="fill:#ffffff" /><path
         d="m 404.397,336.686 c 1.991,0 3.605,-1.613 3.605,-3.604 0,-1.995 -1.614,-3.61 -3.605,-3.61 -1.989,0 -3.604,1.616 -3.604,3.61 10e-4,1.991 1.615,3.604 3.604,3.604"
         id="path238"
         inkscape:connector-curvature="0"
         style="fill:#ffffff" /><path
         d="m 425.636,336.686 c 1.996,0 3.609,-1.613 3.609,-3.604 0,-1.995 -1.613,-3.61 -3.609,-3.61 -1.989,0 -3.606,1.616 -3.606,3.61 -10e-4,1.991 1.616,3.604 3.606,3.604"
         id="path240"
         inkscape:connector-curvature="0"
         style="fill:#ffffff" /><path
         d="m 446.872,336.686 c 1.993,0 3.605,-1.613 3.605,-3.604 0,-1.995 -1.612,-3.61 -3.605,-3.61 -1.987,0 -3.604,1.616 -3.604,3.61 0,1.991 1.617,3.604 3.604,3.604"
         id="path242"
         inkscape:connector-curvature="0"
         style="fill:#ffffff" /><path
         d="m 149.553,336.686 c 1.987,0 3.604,-1.613 3.604,-3.604 0,-1.995 -1.616,-3.61 -3.604,-3.61 -1.991,0 -3.607,1.616 -3.607,3.61 -0.001,1.991 1.616,3.604 3.607,3.604"
         id="path244"
         inkscape:connector-curvature="0"
         style="fill:#ffffff" /><path
         d="m 170.786,336.686 c 1.992,0 3.604,-1.613 3.604,-3.604 0,-1.995 -1.61,-3.61 -3.604,-3.61 -1.99,0 -3.604,1.616 -3.604,3.61 -10e-4,1.991 1.614,3.604 3.604,3.604"
         id="path246"
         inkscape:connector-curvature="0"
         style="fill:#ffffff" /><path
         d="m 138.934,357.921 c 1.986,0 3.601,-1.608 3.601,-3.603 0,-1.995 -1.613,-3.609 -3.601,-3.609 -1.991,0 -3.607,1.615 -3.607,3.609 -0.001,1.994 1.615,3.603 3.607,3.603"
         id="path248"
         inkscape:connector-curvature="0"
         style="fill:#ffffff" /><path
         d="m 436.253,357.921 c 2,0 3.613,-1.608 3.613,-3.603 0,-1.995 -1.613,-3.609 -3.613,-3.609 -1.986,0 -3.604,1.615 -3.604,3.609 -0.002,1.994 1.617,3.603 3.604,3.603"
         id="path250"
         inkscape:connector-curvature="0"
         style="fill:#ffffff" /><path
         d="m 128.313,379.16 c 1.987,0 3.602,-1.615 3.602,-3.601 0,-1.995 -1.612,-3.609 -3.602,-3.609 -1.99,0 -3.606,1.614 -3.606,3.609 0,1.985 1.616,3.601 3.606,3.601"
         id="path252"
         inkscape:connector-curvature="0"
         style="fill:#ffffff" /><path
         d="m 446.872,379.16 c 1.993,0 3.605,-1.615 3.605,-3.601 0,-1.995 -1.612,-3.609 -3.605,-3.609 -1.987,0 -3.604,1.614 -3.604,3.609 0,1.985 1.617,3.601 3.604,3.601"
         id="path254"
         inkscape:connector-curvature="0"
         style="fill:#ffffff" /></g><path
       display="inline"
       d="M 413.991,349.93 C 383.525,319.464 337.532,300.149 292.846,298.731 v -25.186 c 0,-2.938 -2.377,-5.307 -5.311,-5.307 -2.935,0 -5.31,2.37 -5.31,5.307 v 25.186 c -44.979,1.417 -91.002,20.57 -121.22,50.788 -22.865,22.871 -34.953,50.264 -34.948,79.212 0,2.931 2.372,5.307 5.306,5.307 2.936,0 5.312,-2.375 5.312,-5.307 0,-14.287 11.626,-25.913 25.909,-25.913 14.288,0 25.916,11.626 25.916,25.913 0,2.931 2.372,5.307 5.31,5.307 2.928,0 5.308,-2.375 5.308,-5.307 0,-14.287 11.622,-25.913 25.911,-25.913 14.29,0 25.913,11.626 25.913,25.91 0,2.935 2.375,5.31 5.311,5.31 2.933,0 5.308,-2.375 5.308,-5.31 0,-12.488 8.887,-22.945 20.668,-25.376 v 205.644 c 0,18.11 14.734,32.853 32.844,32.853 18.112,0 32.842,-14.741 32.842,-32.853 0,-6.894 -2.113,-13.498 -6.117,-19.093 -1.703,-2.386 -5.018,-2.933 -7.398,-1.229 -2.391,1.706 -2.94,5.019 -1.232,7.407 2.705,3.777 4.136,8.25 4.136,12.914 0,12.254 -9.973,22.23 -22.229,22.23 -12.251,0 -22.225,-9.978 -22.225,-22.23 v -205.6 c 11.714,2.479 20.539,12.891 20.539,25.333 0,2.935 2.375,5.31 5.311,5.31 2.925,0 5.308,-2.375 5.308,-5.31 0,-14.287 11.624,-25.916 25.914,-25.916 14.283,0 25.917,11.628 25.917,25.916 0,2.935 2.366,5.31 5.305,5.31 2.93,0 5.306,-2.375 5.306,-5.31 0,-14.287 11.629,-25.916 25.91,-25.916 14.419,0 26.152,11.628 26.152,25.916 0,2.935 2.374,5.31 5.311,5.31 2.925,0 5.309,-2.375 5.309,-5.31 -0.006,-28.569 -12.152,-55.819 -35.141,-78.798"
       id="path256"
       inkscape:connector-curvature="0"
       style="fill:#ffffff;display:inline" /><path
       display="inline"
       d="m 240.244,345.274 -0.003,-7.166 c 0,-1.878 -1.522,-3.4 -3.401,-3.4 h -7.648 c -1.878,0 -3.401,1.523 -3.401,3.401 0,1.878 1.523,3.401 3.401,3.401 h 4.249 l 0.002,3.765 c 0,2.99 -2.431,5.422 -5.419,5.422 -2.99,0 -5.422,-2.432 -5.422,-5.422 v -14.332 c 0,-2.988 2.432,-5.419 5.422,-5.419 2.319,0 4.382,1.474 5.13,3.667 0.608,1.778 2.542,2.727 4.318,2.12 1.777,-0.607 2.727,-2.541 2.119,-4.318 -1.688,-4.948 -6.338,-8.271 -11.568,-8.271 -6.741,0 -12.226,5.481 -12.226,12.222 v 14.332 c 0,6.741 5.484,12.225 12.226,12.225 6.738,-10e-4 12.221,-5.484 12.221,-12.227 z"
       id="path258"
       inkscape:connector-curvature="0"
       style="fill:#1d1d1b;display:inline" /><path
       display="inline"
       d="m 258.186,318.722 c -6.74,0 -12.224,5.481 -12.224,12.222 v 22.233 c 0,1.878 1.523,3.4 3.401,3.4 1.878,0 3.401,-1.522 3.401,-3.4 v -9.581 h 10.841 v 9.581 c 0,1.878 1.522,3.4 3.4,3.4 1.879,0 3.401,-1.522 3.401,-3.4 v -22.233 c 0.004,-6.739 -5.48,-12.222 -12.22,-12.222 z m -5.42,18.072 v -5.85 c 0,-2.988 2.432,-5.419 5.42,-5.419 2.987,0 5.421,2.431 5.421,5.419 v 5.85 h -10.841 z"
       id="path260"
       inkscape:connector-curvature="0"
       style="fill:#1d1d1b;display:inline" /><path
       display="inline"
       d="m 338.02,356.579 c 1.879,0 3.401,-1.522 3.401,-3.4 v -9.581 h 10.842 v 9.581 c 0,1.878 1.521,3.4 3.4,3.4 1.88,0 3.401,-1.522 3.401,-3.4 v -22.233 c 0,-6.739 -5.483,-12.222 -12.224,-12.222 -6.741,0 -12.225,5.481 -12.225,12.222 v 22.233 c 0.003,1.877 1.526,3.4 3.405,3.4 z m 8.823,-31.054 c 2.988,0 5.421,2.431 5.421,5.419 v 5.85 h -10.842 v -5.85 c 0,-2.988 2.431,-5.419 5.421,-5.419 z"
       id="path262"
       inkscape:connector-curvature="0"
       style="fill:#1d1d1b;display:inline" /><path
       display="inline"
       d="m 316.608,318.722 c -6.739,0 -12.222,5.481 -12.222,12.222 v 14.332 c 0,6.741 5.482,12.225 12.222,12.225 6.738,0 12.219,-5.483 12.219,-12.225 v -14.332 c 0,-6.739 -5.481,-12.222 -12.219,-12.222 z m 5.416,26.554 c 0,2.99 -2.43,5.422 -5.416,5.422 -2.988,0 -5.419,-2.432 -5.419,-5.422 v -14.332 c 0,-2.988 2.431,-5.419 5.419,-5.419 2.986,0 5.416,2.431 5.416,5.419 v 14.332 z"
       id="path264"
       inkscape:connector-curvature="0"
       style="fill:#1d1d1b;display:inline" /><path
       display="inline"
       d="m 296.167,339.465 c 1.834,-2.109 2.916,-4.865 2.916,-7.854 0,-6.599 -5.368,-11.967 -11.969,-11.967 l -7.574,0.003 c -1.878,0 -3.399,1.522 -3.399,3.4 v 30.13 c 0,1.878 1.522,3.4 3.4,3.4 1.878,0 3.401,-1.522 3.401,-3.4 v -26.729 l 4.173,-0.002 c 2.848,0 5.165,2.317 5.165,5.165 0,2.409 -1.624,4.464 -3.949,4.999 -1.629,0.374 -2.745,1.877 -2.632,3.544 0.113,1.667 1.421,3.006 3.085,3.158 2.504,0.228 4.467,2.381 4.467,4.9 v 4.963 c 0,1.879 1.523,3.401 3.401,3.401 1.878,0 3.401,-1.522 3.401,-3.401 v -4.963 c 0,-3.475 -1.485,-6.599 -3.886,-8.747 z"
       id="path266"
       inkscape:connector-curvature="0"
       style="fill:#1d1d1b;display:inline" /><path
       display="inline"
       d="m 177.249,363.862 c -1.409,0 -2.551,1.142 -2.551,2.551 v 8.33 h -7.682 v -8.33 c 0,-1.409 -1.143,-2.551 -2.552,-2.551 -1.408,0 -2.551,1.142 -2.551,2.551 v 23.76 c 0,1.409 1.143,2.552 2.551,2.552 1.409,0 2.552,-1.143 2.552,-2.552 v -10.327 h 7.682 v 10.327 c 0,1.409 1.142,2.552 2.551,2.552 1.409,0 2.551,-1.143 2.551,-2.552 v -23.76 c 0,-1.409 -1.142,-2.551 -2.551,-2.551 z"
       id="path268"
       inkscape:connector-curvature="0"
       style="fill:#1d1d1b;display:inline" /><path
       display="inline"
       d="m 346.885,387.622 h -8.863 v -21.208 c 0,-1.409 -1.142,-2.551 -2.551,-2.551 -1.409,0 -2.551,1.142 -2.551,2.551 v 23.76 c 0,1.409 1.142,2.552 2.551,2.552 h 11.414 c 1.409,0 2.551,-1.143 2.551,-2.552 0,-1.409 -1.141,-2.552 -2.551,-2.552 z"
       id="path270"
       inkscape:connector-curvature="0"
       style="fill:#1d1d1b;display:inline" /><path
       display="inline"
       d="m 223.577,376.206 c 1.388,0.207 2.692,-0.751 2.9,-2.146 0.071,-0.479 0.107,-0.957 0.107,-1.418 0,-5.242 -4.264,-9.506 -9.505,-9.506 -5.241,0 -9.505,4.265 -9.505,9.506 v 11.302 c 0,5.243 4.264,9.508 9.505,9.508 5.241,0 9.505,-4.265 9.505,-9.508 0,-0.516 -0.045,-1.048 -0.135,-1.581 -0.233,-1.389 -1.548,-2.323 -2.938,-2.094 -1.391,0.232 -2.327,1.549 -2.095,2.938 0.043,0.258 0.064,0.499 0.064,0.736 0,2.429 -1.976,4.405 -4.403,4.405 -2.427,0 -4.403,-1.977 -4.403,-4.405 v -11.302 c 0,-2.429 1.976,-4.404 4.403,-4.404 2.427,0 4.403,1.976 4.403,4.404 0,0.21 -0.019,0.433 -0.052,0.664 -0.205,1.394 0.755,2.693 2.149,2.901 z"
       id="path272"
       inkscape:connector-curvature="0"
       style="fill:#1d1d1b;display:inline" /><path
       display="inline"
       d="m 325.704,376.207 c 1.392,0.206 2.689,-0.76 2.896,-2.152 0.07,-0.48 0.104,-0.955 0.104,-1.412 0,-5.242 -4.263,-9.506 -9.503,-9.506 -5.241,0 -9.506,4.265 -9.506,9.506 v 11.302 c 0,5.243 4.266,9.508 9.506,9.508 5.24,0 9.503,-4.265 9.503,-9.508 0,-0.51 -0.043,-1.023 -0.132,-1.568 -0.226,-1.39 -1.534,-2.334 -2.928,-2.107 -1.391,0.227 -2.334,1.537 -2.108,2.928 0.044,0.271 0.065,0.515 0.065,0.748 0,2.429 -1.974,4.405 -4.401,4.405 -2.427,0 -4.403,-1.977 -4.403,-4.405 v -11.302 c 0,-2.429 1.976,-4.404 4.403,-4.404 2.427,0 4.401,1.976 4.401,4.404 0,0.209 -0.019,0.435 -0.052,0.67 -0.203,1.393 0.761,2.688 2.155,2.893 z"
       id="path274"
       inkscape:connector-curvature="0"
       style="fill:#1d1d1b;display:inline" /><path
       display="inline"
       d="m 367.769,363.862 c -1.409,0 -2.551,1.142 -2.551,2.551 v 17.53 c 0,2.429 -1.978,4.405 -4.405,4.405 -2.427,0 -4.404,-1.977 -4.404,-4.405 v -17.53 c 0,-1.409 -1.142,-2.551 -2.551,-2.551 -1.409,0 -2.551,1.142 -2.551,2.551 v 17.53 c 0,5.243 4.264,9.508 9.506,9.508 5.242,0 9.507,-4.265 9.507,-9.508 v -17.53 c -10e-4,-1.409 -1.142,-2.551 -2.551,-2.551 z"
       id="path276"
       inkscape:connector-curvature="0"
       style="fill:#1d1d1b;display:inline" /><path
       display="inline"
       d="m 193.822,363.136 c -5.241,0 -9.505,4.265 -9.505,9.507 v 17.53 c 0,1.409 1.142,2.552 2.551,2.552 1.409,0 2.551,-1.143 2.551,-2.552 v -7.849 h 8.808 v 7.849 c 0,1.409 1.142,2.552 2.551,2.552 1.409,0 2.551,-1.143 2.551,-2.552 v -17.53 c 0,-5.243 -4.265,-9.507 -9.507,-9.507 z m -4.403,14.086 v -4.58 c 0,-2.43 1.976,-4.404 4.403,-4.404 2.427,0 4.404,1.976 4.404,4.404 v 4.58 h -8.807 z"
       id="path278"
       inkscape:connector-curvature="0"
       style="fill:#1d1d1b;display:inline" /><path
       display="inline"
       d="m 265.956,387.622 h -6.022 c -1.515,0 -2.745,-1.231 -2.745,-2.748 v -5.312 h 6.782 c 1.408,0 2.551,-1.143 2.551,-2.551 0,-1.409 -1.143,-2.552 -2.551,-2.552 h -6.782 v -2.747 c 0,-1.515 1.23,-2.748 2.745,-2.748 h 5.371 c 1.408,0 2.551,-1.142 2.551,-2.551 0,-1.409 -1.143,-2.551 -2.551,-2.551 h -5.371 c -4.327,0 -7.848,3.521 -7.848,7.85 v 13.162 c 0,4.329 3.521,7.851 7.848,7.851 h 6.022 c 1.409,0 2.551,-1.143 2.551,-2.551 0,-1.409 -1.142,-2.552 -2.551,-2.552 z"
       id="path280"
       inkscape:connector-curvature="0"
       style="fill:#1d1d1b;display:inline" /><path
       display="inline"
       d="m 410.398,387.622 h -6.022 c -1.516,0 -2.747,-1.231 -2.747,-2.748 v -5.312 h 6.783 c 1.409,0 2.552,-1.143 2.552,-2.551 0,-1.409 -1.143,-2.552 -2.552,-2.552 h -6.783 v -2.747 c 0,-1.515 1.231,-2.748 2.747,-2.748 h 5.37 c 1.409,0 2.552,-1.142 2.552,-2.551 0,-1.409 -1.143,-2.551 -2.552,-2.551 h -5.37 c -4.328,0 -7.85,3.521 -7.85,7.85 v 13.162 c 0,4.329 3.521,7.851 7.85,7.851 h 6.022 c 1.409,0 2.551,-1.143 2.551,-2.551 0,-1.409 -1.141,-2.552 -2.551,-2.552 z"
       id="path282"
       inkscape:connector-curvature="0"
       style="fill:#1d1d1b;display:inline" /><path
       display="inline"
       d="m 241.994,375.635 5.562,-7.732 c 0.822,-1.144 0.562,-2.738 -0.582,-3.561 -1.145,-0.822 -2.737,-0.562 -3.562,0.581 l -7.054,9.81 v -8.317 c 0,-1.409 -1.143,-2.551 -2.551,-2.551 -1.409,0 -2.552,1.142 -2.552,2.551 v 23.757 c 0,1.409 1.143,2.552 2.552,2.552 1.408,0 2.551,-1.143 2.551,-2.552 v -9.894 h 2.732 c 2.428,0 4.402,1.976 4.402,4.404 v 5.488 c 0,1.409 1.143,2.552 2.551,2.552 1.409,0 2.552,-1.143 2.552,-2.552 v -5.488 c 0,-4.228 -2.777,-7.817 -6.601,-9.048 z"
       id="path284"
       inkscape:connector-curvature="0"
       style="fill:#1d1d1b;display:inline" /><path
       display="inline"
       d="m 389.047,376.219 c 0.591,-1.171 0.909,-2.482 0.909,-3.843 0,-4.7 -3.82,-8.522 -8.525,-8.522 l -3.877,0.012 c -1.406,0.004 -2.543,1.146 -2.543,2.551 v 23.757 c 0,1.409 1.142,2.552 2.551,2.552 h 6.434 c 4.979,0 9.028,-4.052 9.028,-9.029 -0.002,-3.092 -1.564,-5.853 -3.977,-7.478 z m -5.053,11.403 h -3.883 v -18.663 l 1.326,-0.004 c 1.884,0 3.417,1.534 3.417,3.42 0,1.15 -0.536,2.169 -1.469,2.797 -0.886,0.596 -1.307,1.679 -1.058,2.715 0.25,1.036 1.118,1.809 2.178,1.936 1.945,0.233 3.415,1.898 3.415,3.873 0.002,2.164 -1.761,3.926 -3.926,3.926 z"
       id="path286"
       inkscape:connector-curvature="0"
       style="fill:#1d1d1b;display:inline" /><g
       display="inline"
       id="g288"
       style="display:inline"><g
         id="g290"><path
           d="m 287.838,392.725 c -1.408,0 -2.551,-1.143 -2.551,-2.552 V 386.2 c 0,-2.015 -1.553,-3.711 -3.61,-3.945 -1.227,-0.139 -2.178,-1.136 -2.259,-2.366 -0.081,-1.231 0.731,-2.345 1.929,-2.644 1.871,-0.467 3.177,-2.144 3.177,-4.077 0,-2.317 -1.886,-4.203 -4.204,-4.203 l -3.213,0.001 v 21.207 c 0,1.409 -1.143,2.552 -2.551,2.552 -1.409,0 -2.552,-1.143 -2.552,-2.552 v -23.757 c 0,-1.409 1.143,-2.55 2.551,-2.551 l 5.765,-0.003 c 5.133,0 9.308,4.174 9.308,9.306 0,2.36 -0.88,4.547 -2.365,6.208 1.929,1.671 3.13,4.121 3.13,6.824 v 3.973 c -0.004,1.41 -1.146,2.552 -2.555,2.552 z"
           id="path292"
           inkscape:connector-curvature="0"
           style="fill:#1d1d1b" /></g></g></g><path
     style="fill:#00ff00"
     inkscape:connector-curvature="0"
     id="path547"
     d="M 408.82759,113.27614 C 369.40512,73.853675 309.89099,48.860403 252.06809,47.025536 V 14.435294 c 0,-3.80172 -3.0758,-6.8671649 -6.87234,-6.8671649 -3.79784,0 -6.87105,3.0667389 -6.87105,6.8671649 V 47.025536 C 180.12266,48.859109 120.56971,73.642755 81.468146,112.74432 51.881243,142.33899 36.239583,177.78505 36.246053,215.24326 c 0,3.79266 3.069327,6.86716 6.865871,6.86716 3.799133,0 6.873635,-3.07321 6.873635,-6.86716 0,-18.48713 15.043834,-33.53097 33.525785,-33.53097 18.488426,0 33.534846,15.04384 33.534846,33.53097 0,3.79266 3.06933,6.86716 6.87105,6.86716 3.78878,0 6.86846,-3.07321 6.86846,-6.86716 0,-18.48713 15.03866,-33.53097 33.52838,-33.53097 18.49101,0 33.53097,15.04384 33.53097,33.52708 0,3.79784 3.0732,6.87105 6.87234,6.87105 3.79525,0 6.86846,-3.07321 6.86846,-6.87105 0,-16.15925 11.49962,-29.69042 26.74403,-32.83609 V 448.503 c 0,23.43403 19.06553,42.51121 42.49956,42.51121 23.43661,0 42.49697,-19.0746 42.49697,-42.51121 0,-8.92071 -2.73419,-17.46617 -7.91529,-24.706 -2.20366,-3.08745 -6.49321,-3.79525 -9.57289,-1.59031 -3.09391,2.20754 -3.8043,6.4945 -1.59418,9.58453 3.50022,4.88737 5.35191,10.67536 5.35191,16.71049 0,15.85646 -12.90489,28.76523 -28.76394,28.76523 -15.85258,0 -28.75876,-12.91136 -28.75876,-28.76523 V 182.45892 c 15.15771,3.20778 26.57711,16.68072 26.57711,32.78045 0,3.79784 3.07321,6.87105 6.87234,6.87105 3.7849,0 6.86846,-3.07321 6.86846,-6.87105 0,-18.48712 15.04125,-33.53485 33.53226,-33.53485 18.48195,0 33.53614,15.04643 33.53614,33.53485 0,3.79784 3.06157,6.87105 6.86458,6.87105 3.79137,0 6.86587,-3.07321 6.86587,-6.87105 0,-18.48712 15.04772,-33.53485 33.52709,-33.53485 18.65793,0 33.84023,15.04643 33.84023,33.53485 0,3.79784 3.07191,6.87105 6.87234,6.87105 3.7849,0 6.86975,-3.07321 6.86975,-6.87105 -0.008,-36.96778 -15.72447,-72.2288 -45.47184,-101.96323" /><g
     id="Logo_Garoa_verde"
     display="none"
     style="display:none"
     transform="translate(0,-341.89101)"><path
       display="inline"
       d="m 471.96,628.1 c 0,14.09 -11.423,25.512 -25.513,25.512 h -317.71 c -14.09,0 -25.512,-11.422 -25.512,-25.512 V 160.835 c 0,-14.09 11.422,-25.512 25.512,-25.512 h 317.71 c 14.09,0 25.513,11.422 25.513,25.512 V 628.1 z"
       id="path586"
       inkscape:connector-curvature="0"
       style="fill:#006837;display:inline" /><g
       display="inline"
       id="g588"
       style="display:inline"><path
         d="m 128.313,166.771 c 1.987,0 3.602,-1.612 3.602,-3.603 0,-1.997 -1.612,-3.606 -3.602,-3.606 -1.99,0 -3.606,1.61 -3.606,3.606 0,1.991 1.616,3.603 3.606,3.603"
         id="path590"
         inkscape:connector-curvature="0"
         style="fill:#00ff00" /><path
         d="m 298.214,166.771 c 1.991,0 3.604,-1.612 3.604,-3.603 0,-1.997 -1.612,-3.606 -3.604,-3.606 -1.991,0 -3.608,1.61 -3.608,3.606 -0.002,1.991 1.617,3.603 3.608,3.603"
         id="path592"
         inkscape:connector-curvature="0"
         style="fill:#00ff00" /><path
         d="m 319.453,166.771 c 1.989,0 3.604,-1.612 3.604,-3.603 0,-1.997 -1.614,-3.606 -3.604,-3.606 -1.998,0 -3.607,1.61 -3.607,3.606 -10e-4,1.991 1.609,3.603 3.607,3.603"
         id="path594"
         inkscape:connector-curvature="0"
         style="fill:#00ff00" /><path
         d="m 340.687,166.771 c 1.99,0 3.606,-1.612 3.606,-3.603 0,-1.997 -1.616,-3.606 -3.606,-3.606 -1.99,0 -3.608,1.61 -3.608,3.606 -0.001,1.991 1.617,3.603 3.608,3.603"
         id="path596"
         inkscape:connector-curvature="0"
         style="fill:#00ff00" /><path
         d="m 361.925,166.771 c 1.99,0 3.609,-1.612 3.609,-3.603 0,-1.997 -1.619,-3.606 -3.609,-3.606 -1.99,0 -3.607,1.61 -3.607,3.606 -0.002,1.991 1.616,3.603 3.607,3.603"
         id="path598"
         inkscape:connector-curvature="0"
         style="fill:#00ff00" /><path
         d="m 383.161,166.771 c 1.989,0 3.612,-1.612 3.612,-3.603 0,-1.997 -1.623,-3.606 -3.612,-3.606 -1.99,0 -3.604,1.61 -3.604,3.606 -0.001,1.991 1.614,3.603 3.604,3.603"
         id="path600"
         inkscape:connector-curvature="0"
         style="fill:#00ff00" /><path
         d="m 404.397,166.771 c 1.991,0 3.605,-1.612 3.605,-3.603 0,-1.997 -1.614,-3.606 -3.605,-3.606 -1.989,0 -3.604,1.61 -3.604,3.606 10e-4,1.991 1.615,3.603 3.604,3.603"
         id="path602"
         inkscape:connector-curvature="0"
         style="fill:#00ff00" /><path
         d="m 425.636,166.771 c 1.996,0 3.609,-1.612 3.609,-3.603 0,-1.997 -1.613,-3.606 -3.609,-3.606 -1.989,0 -3.606,1.61 -3.606,3.606 -10e-4,1.991 1.616,3.603 3.606,3.603"
         id="path604"
         inkscape:connector-curvature="0"
         style="fill:#00ff00" /><path
         d="m 446.872,166.771 c 1.993,0 3.605,-1.612 3.605,-3.603 0,-1.997 -1.612,-3.606 -3.605,-3.606 -1.987,0 -3.604,1.61 -3.604,3.606 0,1.991 1.617,3.603 3.604,3.603"
         id="path606"
         inkscape:connector-curvature="0"
         style="fill:#00ff00" /><path
         d="m 149.553,166.771 c 1.987,0 3.604,-1.612 3.604,-3.603 0,-1.997 -1.616,-3.606 -3.604,-3.606 -1.991,0 -3.607,1.61 -3.607,3.606 -0.001,1.991 1.616,3.603 3.607,3.603"
         id="path608"
         inkscape:connector-curvature="0"
         style="fill:#00ff00" /><path
         d="m 170.786,166.771 c 1.992,0 3.604,-1.612 3.604,-3.603 0,-1.997 -1.61,-3.606 -3.604,-3.606 -1.99,0 -3.604,1.61 -3.604,3.606 -10e-4,1.991 1.614,3.603 3.604,3.603"
         id="path610"
         inkscape:connector-curvature="0"
         style="fill:#00ff00" /><path
         d="m 192.024,166.771 c 1.993,0 3.604,-1.612 3.604,-3.603 0,-1.997 -1.61,-3.606 -3.604,-3.606 -1.991,0 -3.606,1.61 -3.606,3.606 0,1.991 1.615,3.603 3.606,3.603"
         id="path612"
         inkscape:connector-curvature="0"
         style="fill:#00ff00" /><path
         d="m 213.259,166.771 c 1.995,0 3.609,-1.612 3.609,-3.603 0,-1.997 -1.614,-3.606 -3.609,-3.606 -1.988,0 -3.603,1.61 -3.603,3.606 0,1.991 1.614,3.603 3.603,3.603"
         id="path614"
         inkscape:connector-curvature="0"
         style="fill:#00ff00" /><path
         d="m 234.498,166.771 c 1.99,0 3.604,-1.612 3.604,-3.603 0,-1.997 -1.614,-3.606 -3.604,-3.606 -1.99,0 -3.604,1.61 -3.604,3.606 -0.001,1.991 1.614,3.603 3.604,3.603"
         id="path616"
         inkscape:connector-curvature="0"
         style="fill:#00ff00" /><path
         d="m 255.735,166.771 c 1.99,0 3.604,-1.612 3.604,-3.603 0,-1.997 -1.613,-3.606 -3.604,-3.606 -1.989,0 -3.604,1.61 -3.604,3.606 0.002,1.991 1.615,3.603 3.604,3.603"
         id="path618"
         inkscape:connector-curvature="0"
         style="fill:#00ff00" /><path
         d="m 276.972,166.771 c 1.988,0 3.603,-1.612 3.603,-3.603 0,-1.997 -1.613,-3.606 -3.603,-3.606 -1.99,0 -3.604,1.61 -3.604,3.606 0.001,1.991 1.613,3.603 3.604,3.603"
         id="path620"
         inkscape:connector-curvature="0"
         style="fill:#00ff00" /><path
         d="m 138.934,188.01 c 1.986,0 3.601,-1.614 3.601,-3.604 0,-1.993 -1.613,-3.604 -3.601,-3.604 -1.991,0 -3.607,1.611 -3.607,3.604 -0.001,1.99 1.615,3.604 3.607,3.604"
         id="path622"
         inkscape:connector-curvature="0"
         style="fill:#00ff00" /><path
         d="m 308.833,188.01 c 1.99,0 3.606,-1.614 3.606,-3.604 0,-1.993 -1.616,-3.604 -3.606,-3.604 -1.99,0 -3.609,1.611 -3.609,3.604 -10e-4,1.99 1.619,3.604 3.609,3.604"
         id="path624"
         inkscape:connector-curvature="0"
         style="fill:#00ff00" /><path
         d="m 330.068,188.01 c 1.99,0 3.606,-1.614 3.606,-3.604 0,-1.993 -1.616,-3.604 -3.606,-3.604 -1.994,0 -3.604,1.611 -3.604,3.604 0.002,1.99 1.61,3.604 3.604,3.604"
         id="path626"
         inkscape:connector-curvature="0"
         style="fill:#00ff00" /><path
         d="m 351.305,188.01 c 1.99,0 3.605,-1.614 3.605,-3.604 0,-1.993 -1.615,-3.604 -3.605,-3.604 -1.99,0 -3.604,1.611 -3.604,3.604 10e-4,1.99 1.613,3.604 3.604,3.604"
         id="path628"
         inkscape:connector-curvature="0"
         style="fill:#00ff00" /><path
         d="m 372.542,188.01 c 1.992,0 3.611,-1.614 3.611,-3.604 0,-1.993 -1.619,-3.604 -3.611,-3.604 -1.99,0 -3.605,1.611 -3.605,3.604 -0.001,1.99 1.615,3.604 3.605,3.604"
         id="path630"
         inkscape:connector-curvature="0"
         style="fill:#00ff00" /><path
         d="m 393.777,188.01 c 1.992,0 3.611,-1.614 3.611,-3.604 0,-1.993 -1.619,-3.604 -3.611,-3.604 -1.99,0 -3.603,1.611 -3.603,3.604 0.002,1.99 1.613,3.604 3.603,3.604"
         id="path632"
         inkscape:connector-curvature="0"
         style="fill:#00ff00" /><path
         d="m 415.019,188.01 c 1.99,0 3.603,-1.614 3.603,-3.604 0,-1.993 -1.611,-3.604 -3.603,-3.604 -1.992,0 -3.61,1.611 -3.61,3.604 -10e-4,1.99 1.619,3.604 3.61,3.604"
         id="path634"
         inkscape:connector-curvature="0"
         style="fill:#00ff00" /><path
         d="m 436.253,188.01 c 2,0 3.613,-1.614 3.613,-3.604 0,-1.993 -1.613,-3.604 -3.613,-3.604 -1.986,0 -3.604,1.611 -3.604,3.604 -0.002,1.99 1.617,3.604 3.604,3.604"
         id="path636"
         inkscape:connector-curvature="0"
         style="fill:#00ff00" /><path
         d="m 160.17,188.01 c 1.991,0 3.608,-1.614 3.608,-3.604 0,-1.993 -1.617,-3.604 -3.608,-3.604 -1.994,0 -3.606,1.611 -3.606,3.604 -0.002,1.99 1.612,3.604 3.606,3.604"
         id="path638"
         inkscape:connector-curvature="0"
         style="fill:#00ff00" /><path
         d="m 181.405,188.01 c 1.993,0 3.604,-1.614 3.604,-3.604 0,-1.993 -1.609,-3.604 -3.604,-3.604 -1.991,0 -3.605,1.611 -3.605,3.604 0,1.99 1.614,3.604 3.605,3.604"
         id="path640"
         inkscape:connector-curvature="0"
         style="fill:#00ff00" /><path
         d="m 202.642,188.01 c 1.993,0 3.605,-1.614 3.605,-3.604 0,-1.993 -1.612,-3.604 -3.605,-3.604 -1.992,0 -3.604,1.611 -3.604,3.604 0,1.99 1.611,3.604 3.604,3.604"
         id="path642"
         inkscape:connector-curvature="0"
         style="fill:#00ff00" /><path
         d="m 223.879,188.01 c 1.993,0 3.605,-1.614 3.605,-3.604 0,-1.993 -1.612,-3.604 -3.605,-3.604 -1.99,0 -3.604,1.611 -3.604,3.604 -0.002,1.99 1.613,3.604 3.604,3.604"
         id="path644"
         inkscape:connector-curvature="0"
         style="fill:#00ff00" /><path
         d="m 245.117,188.01 c 1.991,0 3.604,-1.614 3.604,-3.604 0,-1.993 -1.613,-3.604 -3.604,-3.604 -1.99,0 -3.604,1.611 -3.604,3.604 -0.001,1.99 1.614,3.604 3.604,3.604"
         id="path646"
         inkscape:connector-curvature="0"
         style="fill:#00ff00" /><path
         d="m 266.353,188.01 c 1.991,0 3.606,-1.614 3.606,-3.604 0,-1.993 -1.615,-3.604 -3.606,-3.604 -1.991,0 -3.604,1.611 -3.604,3.604 10e-4,1.99 1.612,3.604 3.604,3.604"
         id="path648"
         inkscape:connector-curvature="0"
         style="fill:#00ff00" /><path
         d="m 287.591,188.01 c 1.991,0 3.604,-1.614 3.604,-3.604 0,-1.993 -1.612,-3.604 -3.604,-3.604 -1.989,0 -3.605,1.611 -3.605,3.604 -0.002,1.99 1.615,3.604 3.605,3.604"
         id="path650"
         inkscape:connector-curvature="0"
         style="fill:#00ff00" /><path
         d="m 128.313,209.245 c 1.987,0 3.602,-1.608 3.602,-3.604 0,-1.992 -1.612,-3.606 -3.602,-3.606 -1.99,0 -3.606,1.614 -3.606,3.606 0,1.995 1.616,3.604 3.606,3.604"
         id="path652"
         inkscape:connector-curvature="0"
         style="fill:#00ff00" /><path
         d="m 298.214,209.245 c 1.991,0 3.604,-1.608 3.604,-3.604 0,-1.992 -1.612,-3.606 -3.604,-3.606 -1.991,0 -3.608,1.614 -3.608,3.606 -0.002,1.995 1.617,3.604 3.608,3.604"
         id="path654"
         inkscape:connector-curvature="0"
         style="fill:#00ff00" /><path
         d="m 319.453,209.245 c 1.989,0 3.604,-1.608 3.604,-3.604 0,-1.992 -1.614,-3.606 -3.604,-3.606 -1.998,0 -3.607,1.614 -3.607,3.606 -10e-4,1.995 1.609,3.604 3.607,3.604"
         id="path656"
         inkscape:connector-curvature="0"
         style="fill:#00ff00" /><path
         d="m 340.687,209.245 c 1.99,0 3.606,-1.608 3.606,-3.604 0,-1.992 -1.616,-3.606 -3.606,-3.606 -1.99,0 -3.608,1.614 -3.608,3.606 -0.001,1.995 1.617,3.604 3.608,3.604"
         id="path658"
         inkscape:connector-curvature="0"
         style="fill:#00ff00" /><path
         d="m 361.925,209.245 c 1.99,0 3.609,-1.608 3.609,-3.604 0,-1.992 -1.619,-3.606 -3.609,-3.606 -1.99,0 -3.607,1.614 -3.607,3.606 -0.002,1.995 1.616,3.604 3.607,3.604"
         id="path660"
         inkscape:connector-curvature="0"
         style="fill:#00ff00" /><path
         d="m 383.161,209.245 c 1.989,0 3.612,-1.608 3.612,-3.604 0,-1.992 -1.623,-3.606 -3.612,-3.606 -1.99,0 -3.604,1.614 -3.604,3.606 -0.001,1.995 1.614,3.604 3.604,3.604"
         id="path662"
         inkscape:connector-curvature="0"
         style="fill:#00ff00" /><path
         d="m 404.397,209.245 c 1.991,0 3.605,-1.608 3.605,-3.604 0,-1.992 -1.614,-3.606 -3.605,-3.606 -1.989,0 -3.604,1.614 -3.604,3.606 10e-4,1.995 1.615,3.604 3.604,3.604"
         id="path664"
         inkscape:connector-curvature="0"
         style="fill:#00ff00" /><path
         d="m 425.636,209.245 c 1.996,0 3.609,-1.608 3.609,-3.604 0,-1.992 -1.613,-3.606 -3.609,-3.606 -1.989,0 -3.606,1.614 -3.606,3.606 -10e-4,1.995 1.616,3.604 3.606,3.604"
         id="path666"
         inkscape:connector-curvature="0"
         style="fill:#00ff00" /><path
         d="m 446.872,209.245 c 1.993,0 3.605,-1.608 3.605,-3.604 0,-1.992 -1.612,-3.606 -3.605,-3.606 -1.987,0 -3.604,1.614 -3.604,3.606 0,1.995 1.617,3.604 3.604,3.604"
         id="path668"
         inkscape:connector-curvature="0"
         style="fill:#00ff00" /><path
         d="m 149.553,209.245 c 1.987,0 3.604,-1.608 3.604,-3.604 0,-1.992 -1.616,-3.606 -3.604,-3.606 -1.991,0 -3.607,1.614 -3.607,3.606 -0.001,1.995 1.616,3.604 3.607,3.604"
         id="path670"
         inkscape:connector-curvature="0"
         style="fill:#00ff00" /><path
         d="m 170.786,209.245 c 1.992,0 3.604,-1.608 3.604,-3.604 0,-1.992 -1.61,-3.606 -3.604,-3.606 -1.99,0 -3.604,1.614 -3.604,3.606 -10e-4,1.995 1.614,3.604 3.604,3.604"
         id="path672"
         inkscape:connector-curvature="0"
         style="fill:#00ff00" /><path
         d="m 192.024,209.245 c 1.993,0 3.604,-1.608 3.604,-3.604 0,-1.992 -1.61,-3.606 -3.604,-3.606 -1.991,0 -3.606,1.614 -3.606,3.606 0,1.995 1.615,3.604 3.606,3.604"
         id="path674"
         inkscape:connector-curvature="0"
         style="fill:#00ff00" /><path
         d="m 213.259,209.245 c 1.995,0 3.609,-1.608 3.609,-3.604 0,-1.992 -1.614,-3.606 -3.609,-3.606 -1.988,0 -3.603,1.614 -3.603,3.606 0,1.995 1.614,3.604 3.603,3.604"
         id="path676"
         inkscape:connector-curvature="0"
         style="fill:#00ff00" /><path
         d="m 234.498,209.245 c 1.99,0 3.604,-1.608 3.604,-3.604 0,-1.992 -1.614,-3.606 -3.604,-3.606 -1.99,0 -3.604,1.614 -3.604,3.606 -0.001,1.995 1.614,3.604 3.604,3.604"
         id="path678"
         inkscape:connector-curvature="0"
         style="fill:#00ff00" /><path
         d="m 255.735,209.245 c 1.99,0 3.604,-1.608 3.604,-3.604 0,-1.992 -1.613,-3.606 -3.604,-3.606 -1.989,0 -3.604,1.614 -3.604,3.606 0.002,1.995 1.615,3.604 3.604,3.604"
         id="path680"
         inkscape:connector-curvature="0"
         style="fill:#00ff00" /><path
         d="m 276.972,209.245 c 1.988,0 3.603,-1.608 3.603,-3.604 0,-1.992 -1.613,-3.606 -3.603,-3.606 -1.99,0 -3.604,1.614 -3.604,3.606 0.001,1.995 1.613,3.604 3.604,3.604"
         id="path682"
         inkscape:connector-curvature="0"
         style="fill:#00ff00" /><path
         d="m 138.934,230.485 c 1.986,0 3.601,-1.613 3.601,-3.604 0,-1.99 -1.613,-3.605 -3.601,-3.605 -1.991,0 -3.607,1.615 -3.607,3.605 0,1.991 1.615,3.604 3.607,3.604"
         id="path684"
         inkscape:connector-curvature="0"
         style="fill:#00ff00" /><path
         d="m 308.833,230.485 c 1.99,0 3.606,-1.613 3.606,-3.604 0,-1.99 -1.616,-3.605 -3.606,-3.605 -1.99,0 -3.609,1.615 -3.609,3.605 -10e-4,1.991 1.619,3.604 3.609,3.604"
         id="path686"
         inkscape:connector-curvature="0"
         style="fill:#00ff00" /><path
         d="m 330.068,230.485 c 1.99,0 3.606,-1.613 3.606,-3.604 0,-1.99 -1.616,-3.605 -3.606,-3.605 -1.994,0 -3.604,1.615 -3.604,3.605 10e-4,1.991 1.61,3.604 3.604,3.604"
         id="path688"
         inkscape:connector-curvature="0"
         style="fill:#00ff00" /><path
         d="m 351.305,230.485 c 1.99,0 3.605,-1.613 3.605,-3.604 0,-1.99 -1.615,-3.605 -3.605,-3.605 -1.99,0 -3.604,1.615 -3.604,3.605 10e-4,1.991 1.613,3.604 3.604,3.604"
         id="path690"
         inkscape:connector-curvature="0"
         style="fill:#00ff00" /><path
         d="m 372.542,230.485 c 1.992,0 3.611,-1.613 3.611,-3.604 0,-1.99 -1.619,-3.605 -3.611,-3.605 -1.99,0 -3.605,1.615 -3.605,3.605 -0.001,1.991 1.615,3.604 3.605,3.604"
         id="path692"
         inkscape:connector-curvature="0"
         style="fill:#00ff00" /><path
         d="m 393.777,230.485 c 1.992,0 3.611,-1.613 3.611,-3.604 0,-1.99 -1.619,-3.605 -3.611,-3.605 -1.99,0 -3.603,1.615 -3.603,3.605 0.001,1.991 1.613,3.604 3.603,3.604"
         id="path694"
         inkscape:connector-curvature="0"
         style="fill:#00ff00" /><path
         d="m 415.019,230.485 c 1.99,0 3.603,-1.613 3.603,-3.604 0,-1.99 -1.611,-3.605 -3.603,-3.605 -1.992,0 -3.61,1.615 -3.61,3.605 0,1.991 1.619,3.604 3.61,3.604"
         id="path696"
         inkscape:connector-curvature="0"
         style="fill:#00ff00" /><path
         d="m 436.253,230.485 c 2,0 3.613,-1.613 3.613,-3.604 0,-1.99 -1.613,-3.605 -3.613,-3.605 -1.986,0 -3.604,1.615 -3.604,3.605 -10e-4,1.991 1.617,3.604 3.604,3.604"
         id="path698"
         inkscape:connector-curvature="0"
         style="fill:#00ff00" /><path
         d="m 160.17,230.485 c 1.991,0 3.608,-1.613 3.608,-3.604 0,-1.99 -1.617,-3.605 -3.608,-3.605 -1.994,0 -3.606,1.615 -3.606,3.605 -0.001,1.991 1.612,3.604 3.606,3.604"
         id="path700"
         inkscape:connector-curvature="0"
         style="fill:#00ff00" /><path
         d="m 181.405,230.485 c 1.993,0 3.604,-1.613 3.604,-3.604 0,-1.99 -1.609,-3.605 -3.604,-3.605 -1.991,0 -3.605,1.615 -3.605,3.605 0,1.991 1.614,3.604 3.605,3.604"
         id="path702"
         inkscape:connector-curvature="0"
         style="fill:#00ff00" /><path
         d="m 202.642,230.485 c 1.993,0 3.605,-1.613 3.605,-3.604 0,-1.99 -1.612,-3.605 -3.605,-3.605 -1.992,0 -3.604,1.615 -3.604,3.605 0,1.991 1.611,3.604 3.604,3.604"
         id="path704"
         inkscape:connector-curvature="0"
         style="fill:#00ff00" /><path
         d="m 223.879,230.485 c 1.993,0 3.605,-1.613 3.605,-3.604 0,-1.99 -1.612,-3.605 -3.605,-3.605 -1.99,0 -3.604,1.615 -3.604,3.605 -0.001,1.991 1.613,3.604 3.604,3.604"
         id="path706"
         inkscape:connector-curvature="0"
         style="fill:#00ff00" /><path
         d="m 245.117,230.485 c 1.991,0 3.604,-1.613 3.604,-3.604 0,-1.99 -1.613,-3.605 -3.604,-3.605 -1.99,0 -3.604,1.615 -3.604,3.605 -0.001,1.991 1.614,3.604 3.604,3.604"
         id="path708"
         inkscape:connector-curvature="0"
         style="fill:#00ff00" /><path
         d="m 266.353,230.485 c 1.991,0 3.606,-1.613 3.606,-3.604 0,-1.99 -1.615,-3.605 -3.606,-3.605 -1.991,0 -3.604,1.615 -3.604,3.605 10e-4,1.991 1.612,3.604 3.604,3.604"
         id="path710"
         inkscape:connector-curvature="0"
         style="fill:#00ff00" /><path
         d="m 287.591,230.485 c 1.991,0 3.604,-1.613 3.604,-3.604 0,-1.99 -1.612,-3.605 -3.604,-3.605 -1.989,0 -3.605,1.615 -3.605,3.605 -10e-4,1.991 1.615,3.604 3.605,3.604"
         id="path712"
         inkscape:connector-curvature="0"
         style="fill:#00ff00" /><path
         d="m 128.313,251.724 c 1.987,0 3.602,-1.615 3.602,-3.604 0,-1.992 -1.612,-3.607 -3.602,-3.607 -1.99,0 -3.606,1.616 -3.606,3.607 0,1.988 1.616,3.604 3.606,3.604"
         id="path714"
         inkscape:connector-curvature="0"
         style="fill:#00ff00" /><path
         d="m 298.214,251.724 c 1.991,0 3.604,-1.615 3.604,-3.604 0,-1.992 -1.612,-3.607 -3.604,-3.607 -1.991,0 -3.608,1.616 -3.608,3.607 -0.002,1.988 1.617,3.604 3.608,3.604"
         id="path716"
         inkscape:connector-curvature="0"
         style="fill:#00ff00" /><path
         d="m 319.453,251.724 c 1.989,0 3.604,-1.615 3.604,-3.604 0,-1.992 -1.614,-3.607 -3.604,-3.607 -1.998,0 -3.607,1.616 -3.607,3.607 -10e-4,1.988 1.609,3.604 3.607,3.604"
         id="path718"
         inkscape:connector-curvature="0"
         style="fill:#00ff00" /><path
         d="m 340.687,251.724 c 1.99,0 3.606,-1.615 3.606,-3.604 0,-1.992 -1.616,-3.607 -3.606,-3.607 -1.99,0 -3.608,1.616 -3.608,3.607 -0.001,1.988 1.617,3.604 3.608,3.604"
         id="path720"
         inkscape:connector-curvature="0"
         style="fill:#00ff00" /><path
         d="m 361.925,251.724 c 1.99,0 3.609,-1.615 3.609,-3.604 0,-1.992 -1.619,-3.607 -3.609,-3.607 -1.99,0 -3.607,1.616 -3.607,3.607 -0.002,1.988 1.616,3.604 3.607,3.604"
         id="path722"
         inkscape:connector-curvature="0"
         style="fill:#00ff00" /><path
         d="m 383.161,251.724 c 1.989,0 3.612,-1.615 3.612,-3.604 0,-1.992 -1.623,-3.607 -3.612,-3.607 -1.99,0 -3.604,1.616 -3.604,3.607 -0.001,1.988 1.614,3.604 3.604,3.604"
         id="path724"
         inkscape:connector-curvature="0"
         style="fill:#00ff00" /><path
         d="m 404.397,251.724 c 1.991,0 3.605,-1.615 3.605,-3.604 0,-1.992 -1.614,-3.607 -3.605,-3.607 -1.989,0 -3.604,1.616 -3.604,3.607 10e-4,1.988 1.615,3.604 3.604,3.604"
         id="path726"
         inkscape:connector-curvature="0"
         style="fill:#00ff00" /><path
         d="m 425.636,251.724 c 1.996,0 3.609,-1.615 3.609,-3.604 0,-1.992 -1.613,-3.607 -3.609,-3.607 -1.989,0 -3.606,1.616 -3.606,3.607 -10e-4,1.988 1.616,3.604 3.606,3.604"
         id="path728"
         inkscape:connector-curvature="0"
         style="fill:#00ff00" /><path
         d="m 446.872,251.724 c 1.993,0 3.605,-1.615 3.605,-3.604 0,-1.992 -1.612,-3.607 -3.605,-3.607 -1.987,0 -3.604,1.616 -3.604,3.607 0,1.988 1.617,3.604 3.604,3.604"
         id="path730"
         inkscape:connector-curvature="0"
         style="fill:#00ff00" /><path
         d="m 149.553,251.724 c 1.987,0 3.604,-1.615 3.604,-3.604 0,-1.992 -1.616,-3.607 -3.604,-3.607 -1.991,0 -3.607,1.616 -3.607,3.607 -0.001,1.988 1.616,3.604 3.607,3.604"
         id="path732"
         inkscape:connector-curvature="0"
         style="fill:#00ff00" /><path
         d="m 170.786,251.724 c 1.992,0 3.604,-1.615 3.604,-3.604 0,-1.992 -1.61,-3.607 -3.604,-3.607 -1.99,0 -3.604,1.616 -3.604,3.607 -10e-4,1.988 1.614,3.604 3.604,3.604"
         id="path734"
         inkscape:connector-curvature="0"
         style="fill:#00ff00" /><path
         d="m 192.024,251.724 c 1.993,0 3.604,-1.615 3.604,-3.604 0,-1.992 -1.61,-3.607 -3.604,-3.607 -1.991,0 -3.606,1.616 -3.606,3.607 0,1.988 1.615,3.604 3.606,3.604"
         id="path736"
         inkscape:connector-curvature="0"
         style="fill:#00ff00" /><path
         d="m 213.259,251.724 c 1.995,0 3.609,-1.615 3.609,-3.604 0,-1.992 -1.614,-3.607 -3.609,-3.607 -1.988,0 -3.603,1.616 -3.603,3.607 0,1.988 1.614,3.604 3.603,3.604"
         id="path738"
         inkscape:connector-curvature="0"
         style="fill:#00ff00" /><path
         d="m 234.498,251.724 c 1.99,0 3.604,-1.615 3.604,-3.604 0,-1.992 -1.614,-3.607 -3.604,-3.607 -1.99,0 -3.604,1.616 -3.604,3.607 -0.001,1.988 1.614,3.604 3.604,3.604"
         id="path740"
         inkscape:connector-curvature="0"
         style="fill:#00ff00" /><path
         d="m 255.735,251.724 c 1.99,0 3.604,-1.615 3.604,-3.604 0,-1.992 -1.613,-3.607 -3.604,-3.607 -1.989,0 -3.604,1.616 -3.604,3.607 0.002,1.988 1.615,3.604 3.604,3.604"
         id="path742"
         inkscape:connector-curvature="0"
         style="fill:#00ff00" /><path
         d="m 276.972,251.724 c 1.988,0 3.603,-1.615 3.603,-3.604 0,-1.992 -1.613,-3.607 -3.603,-3.607 -1.99,0 -3.604,1.616 -3.604,3.607 0.001,1.988 1.613,3.604 3.604,3.604"
         id="path744"
         inkscape:connector-curvature="0"
         style="fill:#00ff00" /><path
         d="m 138.934,272.96 c 1.986,0 3.601,-1.614 3.601,-3.604 0,-1.992 -1.613,-3.607 -3.601,-3.607 -1.991,0 -3.607,1.615 -3.607,3.607 -0.001,1.99 1.615,3.604 3.607,3.604"
         id="path746"
         inkscape:connector-curvature="0"
         style="fill:#00ff00" /><path
         d="m 308.833,272.96 c 1.99,0 3.606,-1.614 3.606,-3.604 0,-1.992 -1.616,-3.607 -3.606,-3.607 -1.99,0 -3.609,1.615 -3.609,3.607 -10e-4,1.99 1.619,3.604 3.609,3.604"
         id="path748"
         inkscape:connector-curvature="0"
         style="fill:#00ff00" /><path
         d="m 330.068,272.96 c 1.99,0 3.606,-1.614 3.606,-3.604 0,-1.992 -1.616,-3.607 -3.606,-3.607 -1.994,0 -3.604,1.615 -3.604,3.607 0.002,1.99 1.61,3.604 3.604,3.604"
         id="path750"
         inkscape:connector-curvature="0"
         style="fill:#00ff00" /><path
         d="m 351.305,272.96 c 1.99,0 3.605,-1.614 3.605,-3.604 0,-1.992 -1.615,-3.607 -3.605,-3.607 -1.99,0 -3.604,1.615 -3.604,3.607 10e-4,1.99 1.613,3.604 3.604,3.604"
         id="path752"
         inkscape:connector-curvature="0"
         style="fill:#00ff00" /><path
         d="m 372.542,272.96 c 1.992,0 3.611,-1.614 3.611,-3.604 0,-1.992 -1.619,-3.607 -3.611,-3.607 -1.99,0 -3.605,1.615 -3.605,3.607 -0.001,1.99 1.615,3.604 3.605,3.604"
         id="path754"
         inkscape:connector-curvature="0"
         style="fill:#00ff00" /><path
         d="m 393.777,272.96 c 1.992,0 3.611,-1.614 3.611,-3.604 0,-1.992 -1.619,-3.607 -3.611,-3.607 -1.99,0 -3.603,1.615 -3.603,3.607 0.002,1.99 1.613,3.604 3.603,3.604"
         id="path756"
         inkscape:connector-curvature="0"
         style="fill:#00ff00" /><path
         d="m 415.019,272.96 c 1.99,0 3.603,-1.614 3.603,-3.604 0,-1.992 -1.611,-3.607 -3.603,-3.607 -1.992,0 -3.61,1.615 -3.61,3.607 -10e-4,1.99 1.619,3.604 3.61,3.604"
         id="path758"
         inkscape:connector-curvature="0"
         style="fill:#00ff00" /><path
         d="m 436.253,272.96 c 2,0 3.613,-1.614 3.613,-3.604 0,-1.992 -1.613,-3.607 -3.613,-3.607 -1.986,0 -3.604,1.615 -3.604,3.607 -0.002,1.99 1.617,3.604 3.604,3.604"
         id="path760"
         inkscape:connector-curvature="0"
         style="fill:#00ff00" /><path
         d="m 160.17,272.96 c 1.991,0 3.608,-1.614 3.608,-3.604 0,-1.992 -1.617,-3.607 -3.608,-3.607 -1.994,0 -3.606,1.615 -3.606,3.607 -0.002,1.99 1.612,3.604 3.606,3.604"
         id="path762"
         inkscape:connector-curvature="0"
         style="fill:#00ff00" /><path
         d="m 181.405,272.96 c 1.993,0 3.604,-1.614 3.604,-3.604 0,-1.992 -1.609,-3.607 -3.604,-3.607 -1.991,0 -3.605,1.615 -3.605,3.607 0,1.99 1.614,3.604 3.605,3.604"
         id="path764"
         inkscape:connector-curvature="0"
         style="fill:#00ff00" /><path
         d="m 202.642,272.96 c 1.993,0 3.605,-1.614 3.605,-3.604 0,-1.992 -1.612,-3.607 -3.605,-3.607 -1.992,0 -3.604,1.615 -3.604,3.607 0,1.99 1.611,3.604 3.604,3.604"
         id="path766"
         inkscape:connector-curvature="0"
         style="fill:#00ff00" /><path
         d="m 223.879,272.96 c 1.993,0 3.605,-1.614 3.605,-3.604 0,-1.992 -1.612,-3.607 -3.605,-3.607 -1.99,0 -3.604,1.615 -3.604,3.607 -0.002,1.99 1.613,3.604 3.604,3.604"
         id="path768"
         inkscape:connector-curvature="0"
         style="fill:#00ff00" /><path
         d="m 245.117,272.96 c 1.991,0 3.604,-1.614 3.604,-3.604 0,-1.992 -1.613,-3.607 -3.604,-3.607 -1.99,0 -3.604,1.615 -3.604,3.607 -0.001,1.99 1.614,3.604 3.604,3.604"
         id="path770"
         inkscape:connector-curvature="0"
         style="fill:#00ff00" /><path
         d="m 266.353,272.96 c 1.991,0 3.606,-1.614 3.606,-3.604 0,-1.992 -1.615,-3.607 -3.606,-3.607 -1.991,0 -3.604,1.615 -3.604,3.607 10e-4,1.99 1.612,3.604 3.604,3.604"
         id="path772"
         inkscape:connector-curvature="0"
         style="fill:#00ff00" /><path
         d="m 128.313,294.209 c 1.987,0 3.602,-1.612 3.602,-3.604 0,-1.998 -1.612,-3.615 -3.602,-3.615 -1.99,0 -3.606,1.617 -3.606,3.615 0,1.991 1.616,3.604 3.606,3.604"
         id="path774"
         inkscape:connector-curvature="0"
         style="fill:#00ff00" /><path
         d="m 319.453,294.209 c 1.989,0 3.604,-1.612 3.604,-3.604 0,-1.998 -1.614,-3.615 -3.604,-3.615 -1.998,0 -3.607,1.617 -3.607,3.615 -10e-4,1.991 1.609,3.604 3.607,3.604"
         id="path776"
         inkscape:connector-curvature="0"
         style="fill:#00ff00" /><path
         d="m 340.687,294.209 c 1.99,0 3.606,-1.612 3.606,-3.604 0,-1.998 -1.616,-3.615 -3.606,-3.615 -1.99,0 -3.608,1.617 -3.608,3.615 -0.001,1.991 1.617,3.604 3.608,3.604"
         id="path778"
         inkscape:connector-curvature="0"
         style="fill:#00ff00" /><path
         d="m 361.925,294.209 c 1.99,0 3.609,-1.612 3.609,-3.604 0,-1.998 -1.619,-3.615 -3.609,-3.615 -1.99,0 -3.607,1.617 -3.607,3.615 -0.002,1.991 1.616,3.604 3.607,3.604"
         id="path780"
         inkscape:connector-curvature="0"
         style="fill:#00ff00" /><path
         d="m 383.161,294.209 c 1.989,0 3.612,-1.612 3.612,-3.604 0,-1.998 -1.623,-3.615 -3.612,-3.615 -1.99,0 -3.604,1.617 -3.604,3.615 -0.001,1.991 1.614,3.604 3.604,3.604"
         id="path782"
         inkscape:connector-curvature="0"
         style="fill:#00ff00" /><path
         d="m 404.397,294.209 c 1.991,0 3.605,-1.612 3.605,-3.604 0,-1.998 -1.614,-3.615 -3.605,-3.615 -1.989,0 -3.604,1.617 -3.604,3.615 10e-4,1.991 1.615,3.604 3.604,3.604"
         id="path784"
         inkscape:connector-curvature="0"
         style="fill:#00ff00" /><path
         d="m 425.636,294.209 c 1.996,0 3.609,-1.612 3.609,-3.604 0,-1.998 -1.613,-3.615 -3.609,-3.615 -1.989,0 -3.606,1.617 -3.606,3.615 -10e-4,1.991 1.616,3.604 3.606,3.604"
         id="path786"
         inkscape:connector-curvature="0"
         style="fill:#00ff00" /><path
         d="m 446.872,294.209 c 1.993,0 3.605,-1.612 3.605,-3.604 0,-1.998 -1.612,-3.615 -3.605,-3.615 -1.987,0 -3.604,1.617 -3.604,3.615 0,1.991 1.617,3.604 3.604,3.604"
         id="path788"
         inkscape:connector-curvature="0"
         style="fill:#00ff00" /><path
         d="m 149.553,294.209 c 1.987,0 3.604,-1.612 3.604,-3.604 0,-1.998 -1.616,-3.615 -3.604,-3.615 -1.991,0 -3.607,1.617 -3.607,3.615 -0.001,1.991 1.616,3.604 3.607,3.604"
         id="path790"
         inkscape:connector-curvature="0"
         style="fill:#00ff00" /><path
         d="m 170.786,294.209 c 1.992,0 3.604,-1.612 3.604,-3.604 0,-1.998 -1.61,-3.615 -3.604,-3.615 -1.99,0 -3.604,1.617 -3.604,3.615 -10e-4,1.991 1.614,3.604 3.604,3.604"
         id="path792"
         inkscape:connector-curvature="0"
         style="fill:#00ff00" /><path
         d="m 192.024,294.209 c 1.993,0 3.604,-1.612 3.604,-3.604 0,-1.998 -1.61,-3.615 -3.604,-3.615 -1.991,0 -3.606,1.617 -3.606,3.615 0,1.991 1.615,3.604 3.606,3.604"
         id="path794"
         inkscape:connector-curvature="0"
         style="fill:#00ff00" /><path
         d="m 213.259,294.209 c 1.995,0 3.609,-1.612 3.609,-3.604 0,-1.998 -1.614,-3.615 -3.609,-3.615 -1.988,0 -3.603,1.617 -3.603,3.615 0,1.991 1.614,3.604 3.603,3.604"
         id="path796"
         inkscape:connector-curvature="0"
         style="fill:#00ff00" /><path
         d="m 234.498,294.209 c 1.99,0 3.604,-1.612 3.604,-3.604 0,-1.998 -1.614,-3.615 -3.604,-3.615 -1.99,0 -3.604,1.617 -3.604,3.615 -0.001,1.991 1.614,3.604 3.604,3.604"
         id="path798"
         inkscape:connector-curvature="0"
         style="fill:#00ff00" /><path
         d="m 255.735,294.209 c 1.99,0 3.604,-1.612 3.604,-3.604 0,-1.998 -1.613,-3.615 -3.604,-3.615 -1.989,0 -3.604,1.617 -3.604,3.615 0.002,1.991 1.615,3.604 3.604,3.604"
         id="path800"
         inkscape:connector-curvature="0"
         style="fill:#00ff00" /><path
         d="m 138.934,315.446 c 1.986,0 3.601,-1.615 3.601,-3.605 0,-1.991 -1.613,-3.605 -3.601,-3.605 -1.991,0 -3.607,1.614 -3.607,3.605 -0.001,1.99 1.615,3.605 3.607,3.605"
         id="path802"
         inkscape:connector-curvature="0"
         style="fill:#00ff00" /><path
         d="m 372.542,315.446 c 1.992,0 3.611,-1.615 3.611,-3.605 0,-1.991 -1.619,-3.605 -3.611,-3.605 -1.99,0 -3.605,1.614 -3.605,3.605 -0.001,1.99 1.615,3.605 3.605,3.605"
         id="path804"
         inkscape:connector-curvature="0"
         style="fill:#00ff00" /><path
         d="m 393.777,315.446 c 1.992,0 3.611,-1.615 3.611,-3.605 0,-1.991 -1.619,-3.605 -3.611,-3.605 -1.99,0 -3.603,1.614 -3.603,3.605 0.002,1.99 1.613,3.605 3.603,3.605"
         id="path806"
         inkscape:connector-curvature="0"
         style="fill:#00ff00" /><path
         d="m 415.019,315.446 c 1.99,0 3.603,-1.615 3.603,-3.605 0,-1.991 -1.611,-3.605 -3.603,-3.605 -1.992,0 -3.61,1.614 -3.61,3.605 -10e-4,1.99 1.619,3.605 3.61,3.605"
         id="path808"
         inkscape:connector-curvature="0"
         style="fill:#00ff00" /><path
         d="m 436.253,315.446 c 2,0 3.613,-1.615 3.613,-3.605 0,-1.991 -1.613,-3.605 -3.613,-3.605 -1.986,0 -3.604,1.614 -3.604,3.605 -0.002,1.99 1.617,3.605 3.604,3.605"
         id="path810"
         inkscape:connector-curvature="0"
         style="fill:#00ff00" /><path
         d="m 160.17,315.446 c 1.991,0 3.608,-1.615 3.608,-3.605 0,-1.991 -1.617,-3.605 -3.608,-3.605 -1.994,0 -3.606,1.614 -3.606,3.605 -0.002,1.99 1.612,3.605 3.606,3.605"
         id="path812"
         inkscape:connector-curvature="0"
         style="fill:#00ff00" /><path
         d="m 181.405,315.446 c 1.993,0 3.604,-1.615 3.604,-3.605 0,-1.991 -1.609,-3.605 -3.604,-3.605 -1.991,0 -3.605,1.614 -3.605,3.605 0,1.99 1.614,3.605 3.605,3.605"
         id="path814"
         inkscape:connector-curvature="0"
         style="fill:#00ff00" /><path
         d="m 202.642,315.446 c 1.993,0 3.605,-1.615 3.605,-3.605 0,-1.991 -1.612,-3.605 -3.605,-3.605 -1.992,0 -3.604,1.614 -3.604,3.605 0,1.99 1.611,3.605 3.604,3.605"
         id="path816"
         inkscape:connector-curvature="0"
         style="fill:#00ff00" /><path
         d="m 128.313,336.686 c 1.987,0 3.602,-1.613 3.602,-3.604 0,-1.995 -1.612,-3.61 -3.602,-3.61 -1.99,0 -3.606,1.616 -3.606,3.61 0,1.991 1.616,3.604 3.606,3.604"
         id="path818"
         inkscape:connector-curvature="0"
         style="fill:#00ff00" /><path
         d="m 404.397,336.686 c 1.991,0 3.605,-1.613 3.605,-3.604 0,-1.995 -1.614,-3.61 -3.605,-3.61 -1.989,0 -3.604,1.616 -3.604,3.61 10e-4,1.991 1.615,3.604 3.604,3.604"
         id="path820"
         inkscape:connector-curvature="0"
         style="fill:#00ff00" /><path
         d="m 425.636,336.686 c 1.996,0 3.609,-1.613 3.609,-3.604 0,-1.995 -1.613,-3.61 -3.609,-3.61 -1.989,0 -3.606,1.616 -3.606,3.61 -10e-4,1.991 1.616,3.604 3.606,3.604"
         id="path822"
         inkscape:connector-curvature="0"
         style="fill:#00ff00" /><path
         d="m 446.872,336.686 c 1.993,0 3.605,-1.613 3.605,-3.604 0,-1.995 -1.612,-3.61 -3.605,-3.61 -1.987,0 -3.604,1.616 -3.604,3.61 0,1.991 1.617,3.604 3.604,3.604"
         id="path824"
         inkscape:connector-curvature="0"
         style="fill:#00ff00" /><path
         d="m 149.553,336.686 c 1.987,0 3.604,-1.613 3.604,-3.604 0,-1.995 -1.616,-3.61 -3.604,-3.61 -1.991,0 -3.607,1.616 -3.607,3.61 -0.001,1.991 1.616,3.604 3.607,3.604"
         id="path826"
         inkscape:connector-curvature="0"
         style="fill:#00ff00" /><path
         d="m 170.786,336.686 c 1.992,0 3.604,-1.613 3.604,-3.604 0,-1.995 -1.61,-3.61 -3.604,-3.61 -1.99,0 -3.604,1.616 -3.604,3.61 -10e-4,1.991 1.614,3.604 3.604,3.604"
         id="path828"
         inkscape:connector-curvature="0"
         style="fill:#00ff00" /><path
         d="m 138.934,357.921 c 1.986,0 3.601,-1.608 3.601,-3.603 0,-1.995 -1.613,-3.609 -3.601,-3.609 -1.991,0 -3.607,1.615 -3.607,3.609 -0.001,1.994 1.615,3.603 3.607,3.603"
         id="path830"
         inkscape:connector-curvature="0"
         style="fill:#00ff00" /><path
         d="m 436.253,357.921 c 2,0 3.613,-1.608 3.613,-3.603 0,-1.995 -1.613,-3.609 -3.613,-3.609 -1.986,0 -3.604,1.615 -3.604,3.609 -0.002,1.994 1.617,3.603 3.604,3.603"
         id="path832"
         inkscape:connector-curvature="0"
         style="fill:#00ff00" /><path
         d="m 128.313,379.16 c 1.987,0 3.602,-1.615 3.602,-3.601 0,-1.995 -1.612,-3.609 -3.602,-3.609 -1.99,0 -3.606,1.614 -3.606,3.609 0,1.985 1.616,3.601 3.606,3.601"
         id="path834"
         inkscape:connector-curvature="0"
         style="fill:#00ff00" /><path
         d="m 446.872,379.16 c 1.993,0 3.605,-1.615 3.605,-3.601 0,-1.995 -1.612,-3.609 -3.605,-3.609 -1.987,0 -3.604,1.614 -3.604,3.609 0,1.985 1.617,3.601 3.604,3.601"
         id="path836"
         inkscape:connector-curvature="0"
         style="fill:#00ff00" /></g><path
       display="inline"
       d="M 413.991,349.93 C 383.525,319.464 337.532,300.149 292.846,298.731 v -25.186 c 0,-2.938 -2.377,-5.307 -5.311,-5.307 -2.935,0 -5.31,2.37 -5.31,5.307 v 25.186 c -44.979,1.417 -91.002,20.57 -121.22,50.788 -22.865,22.871 -34.953,50.264 -34.948,79.212 0,2.931 2.372,5.307 5.306,5.307 2.936,0 5.312,-2.375 5.312,-5.307 0,-14.287 11.626,-25.913 25.909,-25.913 14.288,0 25.916,11.626 25.916,25.913 0,2.931 2.372,5.307 5.31,5.307 2.928,0 5.308,-2.375 5.308,-5.307 0,-14.287 11.622,-25.913 25.911,-25.913 14.29,0 25.913,11.626 25.913,25.91 0,2.935 2.375,5.31 5.311,5.31 2.933,0 5.308,-2.375 5.308,-5.31 0,-12.488 8.887,-22.945 20.668,-25.376 v 205.644 c 0,18.11 14.734,32.853 32.844,32.853 18.112,0 32.842,-14.741 32.842,-32.853 0,-6.894 -2.113,-13.498 -6.117,-19.093 -1.703,-2.386 -5.018,-2.933 -7.398,-1.229 -2.391,1.706 -2.94,5.019 -1.232,7.407 2.705,3.777 4.136,8.25 4.136,12.914 0,12.254 -9.973,22.23 -22.229,22.23 -12.251,0 -22.225,-9.978 -22.225,-22.23 v -205.6 c 11.714,2.479 20.539,12.891 20.539,25.333 0,2.935 2.375,5.31 5.311,5.31 2.925,0 5.308,-2.375 5.308,-5.31 0,-14.287 11.624,-25.916 25.914,-25.916 14.283,0 25.917,11.628 25.917,25.916 0,2.935 2.366,5.31 5.305,5.31 2.93,0 5.306,-2.375 5.306,-5.31 0,-14.287 11.629,-25.916 25.91,-25.916 14.419,0 26.152,11.628 26.152,25.916 0,2.935 2.374,5.31 5.311,5.31 2.925,0 5.309,-2.375 5.309,-5.31 -0.006,-28.569 -12.152,-55.819 -35.141,-78.798"
       id="path838"
       inkscape:connector-curvature="0"
       style="fill:#00ff00;display:inline" /><path
       display="inline"
       d="m 240.244,345.274 -0.003,-7.166 c 0,-1.878 -1.522,-3.4 -3.401,-3.4 h -7.648 c -1.878,0 -3.401,1.523 -3.401,3.401 0,1.878 1.523,3.401 3.401,3.401 h 4.249 l 0.002,3.765 c 0,2.99 -2.431,5.422 -5.419,5.422 -2.99,0 -5.422,-2.432 -5.422,-5.422 v -14.332 c 0,-2.988 2.432,-5.419 5.422,-5.419 2.319,0 4.382,1.474 5.13,3.667 0.608,1.778 2.542,2.727 4.318,2.12 1.777,-0.607 2.727,-2.541 2.119,-4.318 -1.688,-4.948 -6.338,-8.271 -11.568,-8.271 -6.741,0 -12.226,5.481 -12.226,12.222 v 14.332 c 0,6.741 5.484,12.225 12.226,12.225 6.738,-10e-4 12.221,-5.484 12.221,-12.227 z"
       id="path840"
       inkscape:connector-curvature="0"
       style="fill:#006837;display:inline" /><path
       display="inline"
       d="m 258.186,318.722 c -6.74,0 -12.224,5.481 -12.224,12.222 v 22.233 c 0,1.878 1.523,3.4 3.401,3.4 1.878,0 3.401,-1.522 3.401,-3.4 v -9.581 h 10.841 v 9.581 c 0,1.878 1.522,3.4 3.4,3.4 1.879,0 3.401,-1.522 3.401,-3.4 v -22.233 c 0.004,-6.739 -5.48,-12.222 -12.22,-12.222 z m -5.42,18.072 v -5.85 c 0,-2.988 2.432,-5.419 5.42,-5.419 2.987,0 5.421,2.431 5.421,5.419 v 5.85 h -10.841 z"
       id="path842"
       inkscape:connector-curvature="0"
       style="fill:#006837;display:inline" /><path
       display="inline"
       d="m 338.02,356.579 c 1.879,0 3.401,-1.522 3.401,-3.4 v -9.581 h 10.842 v 9.581 c 0,1.878 1.521,3.4 3.4,3.4 1.88,0 3.401,-1.522 3.401,-3.4 v -22.233 c 0,-6.739 -5.483,-12.222 -12.224,-12.222 -6.741,0 -12.225,5.481 -12.225,12.222 v 22.233 c 0.003,1.877 1.526,3.4 3.405,3.4 z m 8.823,-31.054 c 2.988,0 5.421,2.431 5.421,5.419 v 5.85 h -10.842 v -5.85 c 0,-2.988 2.431,-5.419 5.421,-5.419 z"
       id="path844"
       inkscape:connector-curvature="0"
       style="fill:#006837;display:inline" /><path
       display="inline"
       d="m 316.608,318.722 c -6.739,0 -12.222,5.481 -12.222,12.222 v 14.332 c 0,6.741 5.482,12.225 12.222,12.225 6.738,0 12.219,-5.483 12.219,-12.225 v -14.332 c 0,-6.739 -5.481,-12.222 -12.219,-12.222 z m 5.416,26.554 c 0,2.99 -2.43,5.422 -5.416,5.422 -2.988,0 -5.419,-2.432 -5.419,-5.422 v -14.332 c 0,-2.988 2.431,-5.419 5.419,-5.419 2.986,0 5.416,2.431 5.416,5.419 v 14.332 z"
       id="path846"
       inkscape:connector-curvature="0"
       style="fill:#006837;display:inline" /><path
       display="inline"
       d="m 296.167,339.465 c 1.834,-2.109 2.916,-4.865 2.916,-7.854 0,-6.599 -5.368,-11.967 -11.969,-11.967 l -7.574,0.003 c -1.878,0 -3.399,1.522 -3.399,3.4 v 30.13 c 0,1.878 1.522,3.4 3.4,3.4 1.878,0 3.401,-1.522 3.401,-3.4 v -26.729 l 4.173,-0.002 c 2.848,0 5.165,2.317 5.165,5.165 0,2.409 -1.624,4.464 -3.949,4.999 -1.629,0.374 -2.745,1.877 -2.632,3.544 0.113,1.667 1.421,3.006 3.085,3.158 2.504,0.228 4.467,2.381 4.467,4.9 v 4.963 c 0,1.879 1.523,3.401 3.401,3.401 1.878,0 3.401,-1.522 3.401,-3.401 v -4.963 c 0,-3.475 -1.485,-6.599 -3.886,-8.747 z"
       id="path848"
       inkscape:connector-curvature="0"
       style="fill:#006837;display:inline" /><path
       display="inline"
       d="m 177.249,363.862 c -1.409,0 -2.551,1.142 -2.551,2.551 v 8.33 h -7.682 v -8.33 c 0,-1.409 -1.143,-2.551 -2.552,-2.551 -1.408,0 -2.551,1.142 -2.551,2.551 v 23.76 c 0,1.409 1.143,2.552 2.551,2.552 1.409,0 2.552,-1.143 2.552,-2.552 v -10.327 h 7.682 v 10.327 c 0,1.409 1.142,2.552 2.551,2.552 1.409,0 2.551,-1.143 2.551,-2.552 v -23.76 c 0,-1.409 -1.142,-2.551 -2.551,-2.551 z"
       id="path850"
       inkscape:connector-curvature="0"
       style="fill:#006837;display:inline" /><path
       display="inline"
       d="m 346.885,387.622 h -8.863 v -21.208 c 0,-1.409 -1.142,-2.551 -2.551,-2.551 -1.409,0 -2.551,1.142 -2.551,2.551 v 23.76 c 0,1.409 1.142,2.552 2.551,2.552 h 11.414 c 1.409,0 2.551,-1.143 2.551,-2.552 0,-1.409 -1.141,-2.552 -2.551,-2.552 z"
       id="path852"
       inkscape:connector-curvature="0"
       style="fill:#006837;display:inline" /><path
       display="inline"
       d="m 223.577,376.206 c 1.388,0.207 2.692,-0.751 2.9,-2.146 0.071,-0.479 0.107,-0.957 0.107,-1.418 0,-5.242 -4.264,-9.506 -9.505,-9.506 -5.241,0 -9.505,4.265 -9.505,9.506 v 11.302 c 0,5.243 4.264,9.508 9.505,9.508 5.241,0 9.505,-4.265 9.505,-9.508 0,-0.516 -0.045,-1.048 -0.135,-1.581 -0.233,-1.389 -1.548,-2.323 -2.938,-2.094 -1.391,0.232 -2.327,1.549 -2.095,2.938 0.043,0.258 0.064,0.499 0.064,0.736 0,2.429 -1.976,4.405 -4.403,4.405 -2.427,0 -4.403,-1.977 -4.403,-4.405 v -11.302 c 0,-2.429 1.976,-4.404 4.403,-4.404 2.427,0 4.403,1.976 4.403,4.404 0,0.21 -0.019,0.433 -0.052,0.664 -0.205,1.394 0.755,2.693 2.149,2.901 z"
       id="path854"
       inkscape:connector-curvature="0"
       style="fill:#006837;display:inline" /><path
       display="inline"
       d="m 325.704,376.207 c 1.392,0.206 2.689,-0.76 2.896,-2.152 0.07,-0.48 0.104,-0.955 0.104,-1.412 0,-5.242 -4.263,-9.506 -9.503,-9.506 -5.241,0 -9.506,4.265 -9.506,9.506 v 11.302 c 0,5.243 4.266,9.508 9.506,9.508 5.24,0 9.503,-4.265 9.503,-9.508 0,-0.51 -0.043,-1.023 -0.132,-1.568 -0.226,-1.39 -1.534,-2.334 -2.928,-2.107 -1.391,0.227 -2.334,1.537 -2.108,2.928 0.044,0.271 0.065,0.515 0.065,0.748 0,2.429 -1.974,4.405 -4.401,4.405 -2.427,0 -4.403,-1.977 -4.403,-4.405 v -11.302 c 0,-2.429 1.976,-4.404 4.403,-4.404 2.427,0 4.401,1.976 4.401,4.404 0,0.209 -0.019,0.435 -0.052,0.67 -0.203,1.393 0.761,2.688 2.155,2.893 z"
       id="path856"
       inkscape:connector-curvature="0"
       style="fill:#006837;display:inline" /><path
       display="inline"
       d="m 367.769,363.862 c -1.409,0 -2.551,1.142 -2.551,2.551 v 17.53 c 0,2.429 -1.978,4.405 -4.405,4.405 -2.427,0 -4.404,-1.977 -4.404,-4.405 v -17.53 c 0,-1.409 -1.142,-2.551 -2.551,-2.551 -1.409,0 -2.551,1.142 -2.551,2.551 v 17.53 c 0,5.243 4.264,9.508 9.506,9.508 5.242,0 9.507,-4.265 9.507,-9.508 v -17.53 c -10e-4,-1.409 -1.142,-2.551 -2.551,-2.551 z"
       id="path858"
       inkscape:connector-curvature="0"
       style="fill:#006837;display:inline" /><path
       display="inline"
       d="m 193.822,363.136 c -5.241,0 -9.505,4.265 -9.505,9.507 v 17.53 c 0,1.409 1.142,2.552 2.551,2.552 1.409,0 2.551,-1.143 2.551,-2.552 v -7.849 h 8.808 v 7.849 c 0,1.409 1.142,2.552 2.551,2.552 1.409,0 2.551,-1.143 2.551,-2.552 v -17.53 c 0,-5.243 -4.265,-9.507 -9.507,-9.507 z m -4.403,14.086 v -4.58 c 0,-2.43 1.976,-4.404 4.403,-4.404 2.427,0 4.404,1.976 4.404,4.404 v 4.58 h -8.807 z"
       id="path860"
       inkscape:connector-curvature="0"
       style="fill:#006837;display:inline" /><path
       display="inline"
       d="m 265.956,387.622 h -6.022 c -1.515,0 -2.745,-1.231 -2.745,-2.748 v -5.312 h 6.782 c 1.408,0 2.551,-1.143 2.551,-2.551 0,-1.409 -1.143,-2.552 -2.551,-2.552 h -6.782 v -2.747 c 0,-1.515 1.23,-2.748 2.745,-2.748 h 5.371 c 1.408,0 2.551,-1.142 2.551,-2.551 0,-1.409 -1.143,-2.551 -2.551,-2.551 h -5.371 c -4.327,0 -7.848,3.521 -7.848,7.85 v 13.162 c 0,4.329 3.521,7.851 7.848,7.851 h 6.022 c 1.409,0 2.551,-1.143 2.551,-2.551 0,-1.409 -1.142,-2.552 -2.551,-2.552 z"
       id="path862"
       inkscape:connector-curvature="0"
       style="fill:#006837;display:inline" /><path
       display="inline"
       d="m 410.398,387.622 h -6.022 c -1.516,0 -2.747,-1.231 -2.747,-2.748 v -5.312 h 6.783 c 1.409,0 2.552,-1.143 2.552,-2.551 0,-1.409 -1.143,-2.552 -2.552,-2.552 h -6.783 v -2.747 c 0,-1.515 1.231,-2.748 2.747,-2.748 h 5.37 c 1.409,0 2.552,-1.142 2.552,-2.551 0,-1.409 -1.143,-2.551 -2.552,-2.551 h -5.37 c -4.328,0 -7.85,3.521 -7.85,7.85 v 13.162 c 0,4.329 3.521,7.851 7.85,7.851 h 6.022 c 1.409,0 2.551,-1.143 2.551,-2.551 0,-1.409 -1.141,-2.552 -2.551,-2.552 z"
       id="path864"
       inkscape:connector-curvature="0"
       style="fill:#006837;display:inline" /><path
       display="inline"
       d="m 241.994,375.635 5.562,-7.732 c 0.822,-1.144 0.562,-2.738 -0.582,-3.561 -1.145,-0.822 -2.737,-0.562 -3.562,0.581 l -7.054,9.81 v -8.317 c 0,-1.409 -1.143,-2.551 -2.551,-2.551 -1.409,0 -2.552,1.142 -2.552,2.551 v 23.757 c 0,1.409 1.143,2.552 2.552,2.552 1.408,0 2.551,-1.143 2.551,-2.552 v -9.894 h 2.732 c 2.428,0 4.402,1.976 4.402,4.404 v 5.488 c 0,1.409 1.143,2.552 2.551,2.552 1.409,0 2.552,-1.143 2.552,-2.552 v -5.488 c 0,-4.228 -2.777,-7.817 -6.601,-9.048 z"
       id="path866"
       inkscape:connector-curvature="0"
       style="fill:#006837;display:inline" /><path
       display="inline"
       d="m 389.047,376.219 c 0.591,-1.171 0.909,-2.482 0.909,-3.843 0,-4.7 -3.82,-8.522 -8.525,-8.522 l -3.877,0.012 c -1.406,0.004 -2.543,1.146 -2.543,2.551 v 23.757 c 0,1.409 1.142,2.552 2.551,2.552 h 6.434 c 4.979,0 9.028,-4.052 9.028,-9.029 -0.002,-3.092 -1.564,-5.853 -3.977,-7.478 z m -5.053,11.403 h -3.883 v -18.663 l 1.326,-0.004 c 1.884,0 3.417,1.534 3.417,3.42 0,1.15 -0.536,2.169 -1.469,2.797 -0.886,0.596 -1.307,1.679 -1.058,2.715 0.25,1.036 1.118,1.809 2.178,1.936 1.945,0.233 3.415,1.898 3.415,3.873 0.002,2.164 -1.761,3.926 -3.926,3.926 z"
       id="path868"
       inkscape:connector-curvature="0"
       style="fill:#006837;display:inline" /><g
       display="inline"
       id="g870"
       style="display:inline"><g
         id="g872"><path
           d="m 287.838,392.725 c -1.408,0 -2.551,-1.143 -2.551,-2.552 V 386.2 c 0,-2.015 -1.553,-3.711 -3.61,-3.945 -1.227,-0.139 -2.178,-1.136 -2.259,-2.366 -0.081,-1.231 0.731,-2.345 1.929,-2.644 1.871,-0.467 3.177,-2.144 3.177,-4.077 0,-2.317 -1.886,-4.203 -4.204,-4.203 l -3.213,0.001 v 21.207 c 0,1.409 -1.143,2.552 -2.551,2.552 -1.409,0 -2.552,-1.143 -2.552,-2.552 v -23.757 c 0,-1.409 1.143,-2.55 2.551,-2.551 l 5.765,-0.003 c 5.133,0 9.308,4.174 9.308,9.306 0,2.36 -0.88,4.547 -2.365,6.208 1.929,1.671 3.13,4.121 3.13,6.824 v 3.973 c -0.004,1.41 -1.146,2.552 -2.555,2.552 z"
           id="path874"
           inkscape:connector-curvature="0"
           style="fill:#006837" /></g></g></g></svg>